<?xml version="1.0" encoding="iso-8859-1"?>
<!-- Generator: Adobe Illustrator 19.0.0, SVG Export Plug-In . SVG Version: 6.00 Build 0)  -->
<svg version="1.1" id="Capa_1" xmlns="http://www.w3.org/2000/svg" xmlns:xlink="http://www.w3.org/1999/xlink" x="0px" y="0px"
	 viewBox="0 0 512 512" style="enable-background:new 0 0 512 512;" xml:space="preserve">
<g>
	<g>
		<path d="M349.211,0H162.788c-22.82,0-41.385,18.565-41.385,41.386V397.76c0,4.405,3.571,7.977,7.977,7.977
			s7.977-3.571,7.977-7.977V105.598h201.44c4.406,0,7.977-3.571,7.977-7.977c0-4.406-3.571-7.977-7.977-7.977h-201.44V41.386
			c0-14.023,11.409-25.432,25.431-25.432h186.423c14.024,0,25.432,11.409,25.432,25.432v442.841L261.748,366.892
			c-1.504-1.563-3.579-2.446-5.748-2.446s-4.244,0.883-5.748,2.446L137.357,484.227v-48.768c0-4.405-3.571-7.977-7.977-7.977
			s-7.977,3.571-7.977,7.977v68.563c0,3.254,1.977,6.183,4.996,7.399c3.017,1.217,6.473,0.477,8.729-1.868L256,383.928
			l120.872,125.625c1.534,1.594,3.622,2.447,5.75,2.447c1.002-0.001,2.013-0.189,2.979-0.579c3.019-1.216,4.996-4.145,4.996-7.399
			V41.386C390.597,18.565,372.031,0,349.211,0z"/>
	</g>
</g>
<g>
</g>
<g>
</g>
<g>
</g>
<g>
</g>
<g>
</g>
<g>
</g>
<g>
</g>
<g>
</g>
<g>
</g>
<g>
</g>
<g>
</g>
<g>
</g>
<g>
</g>
<g>
</g>
<g>
</g>
</svg>
