<?xml version="1.0" encoding="iso-8859-1"?>
<!-- Generator: Adobe Illustrator 19.0.0, SVG Export Plug-In . SVG Version: 6.00 Build 0)  -->
<svg version="1.1" id="Layer_1" xmlns="http://www.w3.org/2000/svg" xmlns:xlink="http://www.w3.org/1999/xlink" x="0px" y="0px"
	 viewBox="0 0 512.001 512.001" style="enable-background:new 0 0 512.001 512.001;" xml:space="preserve">
<rect x="212.15" y="110.045" style="fill:#FF3B3B;" width="87.691" height="393.865"/>
<rect x="212.15" y="110.045" style="fill:#E52323;" width="43.846" height="393.865"/>
<path style="fill:#F95A5A;" d="M171.335,140.165c0,101.607,56.366,190.039,139.529,235.762v-267.98H173.263
	C172.002,118.513,171.335,129.261,171.335,140.165z"/>
<path style="fill:#776959;" d="M212.154,110.04H45.688c-9.847,0-17.835,7.985-17.835,17.834v92.151
	c0,9.851,7.988,17.835,17.835,17.835h166.467V110.04H212.154z"/>
<path style="fill:#EF3030;" d="M171.335,140.165c0,77.146,32.499,146.693,84.541,195.724V107.948h-82.613
	C172.002,118.513,171.335,129.261,171.335,140.165z"/>
<g>
	<path style="fill:#937F6C;" d="M185.612,235.768h24.854v-127.82h-40.44c-1.261,10.565-1.928,21.313-1.928,32.217
		C168.099,173.84,174.306,206.061,185.612,235.768z"/>
	<path style="fill:#937F6C;" d="M469.547,110.04H303.082v127.821h166.465c9.849,0,17.837-7.984,17.837-17.835v-92.151
		C487.384,118.025,479.396,110.04,469.547,110.04z"/>
</g>
<g>
	<path style="fill:#BE9B7F;" d="M149.628,503.908h62.526V237.861H56.093v246.303c0,10.905,8.841,19.746,19.745,19.746h46.82"/>
	<path style="fill:#BE9B7F;" d="M299.846,237.861V503.91h136.32c10.902,0,19.742-8.839,19.742-19.746V237.861H299.846z"/>
</g>
<path style="fill:#A88065;" d="M88.289,484.164V237.861H62.566v246.303c0,10.905,8.841,19.746,19.745,19.746h25.723
	C97.13,503.908,88.289,495.069,88.289,484.164z"/>
<path style="fill:#6B5B4D;" d="M60.048,220.025v-92.151c0-9.849,7.988-17.834,17.835-17.834H52.161
	c-9.847,0-17.835,7.985-17.835,17.834v92.151c0,9.851,7.988,17.835,17.835,17.835h25.723
	C68.036,237.861,60.048,229.876,60.048,220.025z"/>
<g>
	<path style="fill:#CCA992;" d="M213.704,285.103v-49.335h-24.855C195.462,253.145,203.806,269.667,213.704,285.103z"/>
	<path style="fill:#CCA992;" d="M301.394,370.474c40.523,24.478,88.022,38.568,138.817,38.568c5.795,0,11.541-0.204,17.245-0.565
		V235.768H301.394V370.474z"/>
</g>
<path style="fill:#231F20;" d="M466.311,101.948h-91.345c4.727-4.492,8.757-9.809,11.863-15.825
	c0.073-0.143,0.143-0.289,0.208-0.436l1.249-2.824c7.597-17.174,6.676-36.428-2.522-52.816c-0.045-0.082-0.092-0.165-0.14-0.247
	c-0.368-0.647-0.747-1.283-1.135-1.911c-0.23-0.371-0.468-0.74-0.659-1.028c-0.23-0.357-0.462-0.711-0.7-1.063
	c-0.43-0.635-0.877-1.263-1.39-1.958c-0.014-0.019-0.045-0.06-0.076-0.101C370.408,8.68,353.185,0.028,334.413,0.005L331.327,0
	c-0.168,0.005-0.327,0.004-0.491,0.014c-22.214,1.312-41.597,14.75-50.584,35.073L256,89.929l-24.253-54.841
	c-8.987-20.323-28.37-33.761-50.584-35.073c-0.164-0.01-0.328-0.009-0.491-0.014l-3.081,0.005
	c-18.777,0.023-36.002,8.675-47.258,23.737h0.001l-0.131,0.173c-0.455,0.618-0.902,1.246-1.331,1.882
	c-0.241,0.353-0.473,0.707-0.652,0.986c-0.243,0.367-0.48,0.736-0.716,1.117c-0.398,0.647-0.786,1.295-1.158,1.947l-0.107,0.191
	c-9.202,16.395-10.123,35.648-2.527,52.827l1.249,2.822c0.066,0.148,0.135,0.292,0.208,0.436
	c3.105,6.016,7.137,11.333,11.863,15.825H45.688c-14.296,0-25.926,11.63-25.926,25.925v92.151c0,14.296,11.63,25.926,25.926,25.926
	h2.314v238.212c0,15.35,12.487,27.837,27.836,27.837h46.82c4.47,0,8.092-3.622,8.092-8.092s-3.622-8.092-8.092-8.092H75.837
	c-6.425,0-11.653-5.228-11.653-11.654v-238.21h139.878v249.866h-54.435c-4.47,0-8.092,3.622-8.092,8.092s3.622,8.092,8.092,8.092
	h62.526h87.69h136.32c15.348,0,27.834-12.487,27.834-27.837V245.952h2.312c14.297,0,25.929-11.63,25.929-25.926v-92.151
	C492.239,113.579,480.608,101.948,466.311,101.948z M295.053,41.632c6.493-14.681,20.465-24.415,36.503-25.449l2.832,0.005
	c13.633,0.017,26.14,6.302,34.375,17.321c0.333,0.451,0.657,0.908,0.973,1.373c0.164,0.244,0.325,0.488,0.533,0.811
	c0.154,0.234,0.307,0.468,0.459,0.711c0.295,0.477,0.58,0.956,0.857,1.444c0.053,0.093,0.107,0.184,0.162,0.275
	c-0.044-0.072-0.088-0.148-0.099-0.165c6.684,11.909,7.354,25.89,1.839,38.355l-1.147,2.593
	c-7.435,14.22-21.977,23.042-38.009,23.042h-0.059l-65.852-0.088L295.053,41.632z M139.659,78.906l-1.147-2.588
	c-5.514-12.471-4.844-26.451,1.889-38.449c0.285-0.5,0.579-0.991,0.875-1.469c0.146-0.236,0.299-0.47,0.504-0.782
	c0.158-0.246,0.318-0.49,0.483-0.735c0.315-0.464,0.64-0.921,0.963-1.362c0.023-0.029,0.046-0.06,0.069-0.092
	c8.176-10.94,20.683-17.224,34.319-17.24l2.829-0.005c16.037,1.034,30.01,10.766,36.503,25.449l26.635,60.228l-65.855,0.088h-0.058
	C161.636,101.947,147.094,93.124,139.659,78.906z M56.093,229.769H45.687c-5.372,0-9.743-4.372-9.743-9.743v-92.151
	c0-5.372,4.372-9.742,9.743-9.742h131.982h0.08h26.315V229.77H56.093V229.769z M220.247,237.861V118.132h71.507v119.729v257.957
	h-71.507L220.247,237.861L220.247,237.861z M447.816,484.164c0,6.426-5.227,11.654-11.651,11.654H307.937V245.952h139.878V484.164z
	 M476.056,220.025c0,5.372-4.373,9.743-9.745,9.743h-10.404h-147.97V118.132h26.315h0.08h131.979c5.373,0,9.745,4.371,9.745,9.742
	L476.056,220.025L476.056,220.025z"/>
<g>
</g>
<g>
</g>
<g>
</g>
<g>
</g>
<g>
</g>
<g>
</g>
<g>
</g>
<g>
</g>
<g>
</g>
<g>
</g>
<g>
</g>
<g>
</g>
<g>
</g>
<g>
</g>
<g>
</g>
</svg>
