<?xml version="1.0" encoding="utf-8"?>
<!-- Generator: Adobe Illustrator 21.1.0, SVG Export Plug-In . SVG Version: 6.00 Build 0)  -->
<svg version="1.1" id="Capa_1" xmlns="http://www.w3.org/2000/svg" xmlns:xlink="http://www.w3.org/1999/xlink" x="0px" y="0px"
	 viewBox="0 0 512 512" style="enable-background:new 0 0 512 512;" xml:space="preserve">
<style type="text/css">
	.st0{fill:#FFFFFF;}
</style>
<g>
	<g>
		<path class="st0" d="M372,24.3c-45-1.4-87.6,18.8-116,54.7c-27.4-34.5-68.2-54.8-111.5-54.8c-0.2,0-0.4,0-0.6,0
			C106.5,24.4,71.1,39.6,44,66.9C15.7,95.6-0.3,135.4,0,176.2c0.3,39.7,15.3,77.1,42.3,105.3l99,102.8c1.6,1.7,3.8,2.6,6,2.6
			c2.1,0,4.2-0.8,5.8-2.3c3.3-3.2,3.4-8.5,0.2-11.8L54.3,269.9c-24-25-37.3-58.4-37.6-93.8c-0.3-36.4,14-71.8,39.2-97.4
			c23.9-24.2,55.1-37.6,88-37.7c0.2,0,0.4,0,0.6,0c41.5,0,80.6,21.2,104.5,56.9c1.6,2.3,4.2,3.7,6.9,3.7s5.4-1.4,6.9-3.7
			c24.9-36.9,65.4-58.2,108.5-56.8c4.6,0.2,8.5-3.5,8.6-8.1C380.2,28.3,376.6,24.5,372,24.3z"/>
	</g>
</g>
<g>
	<g>
		<path class="st0" d="M512,171c-1.5-63-41.2-118.9-98.8-139c-4.4-1.5-9.1,0.8-10.6,5.1s0.8,9.1,5.1,10.6
			c51,17.8,86.2,67.6,87.6,123.7c0.9,36.5-12,70.9-36.3,97c-0.1,0.1-0.1,0.1-0.2,0.2l-0.2,0.2c-0.7,0.8-1.5,1.5-2.3,2.4L269.9,465
			c-3.7,3.9-8.7,6-13.9,6c-5.2,0-10.1-2.1-13.9-6l-60.1-62.4c-3.2-3.3-8.5-3.4-11.8-0.2c-3.3,3.2-3.4,8.5-0.2,11.8l60.1,62.4
			c6.9,7.2,16.1,11.1,25.9,11.1s19-4,25.9-11.1L468.2,283c0.8-0.9,1.7-1.7,2.4-2.5l0.5-0.5c0.1-0.1,0.3-0.3,0.4-0.4
			C498.6,250.3,512.9,211.8,512,171z"/>
	</g>
</g>
</svg>
