<?xml version="1.0" encoding="utf-8"?>
<!-- Generator: Adobe Illustrator 21.1.0, SVG Export Plug-In . SVG Version: 6.00 Build 0)  -->
<svg version="1.1" id="Capa_1" xmlns="http://www.w3.org/2000/svg" xmlns:xlink="http://www.w3.org/1999/xlink" x="0px" y="0px"
	 viewBox="0 0 512 512" style="enable-background:new 0 0 512 512;" xml:space="preserve">
<style type="text/css">
	.st0{fill:#9AECA7;}
</style>
<g>
	<g>
		<path class="st0" d="M453.5,237.1c-4.3,0-7.7,3.5-7.7,7.7v215.9c0,19.6-15.9,35.5-35.5,35.5h-87.1v-14c0-4.3-3.5-7.7-7.7-7.7
			s-7.7,3.5-7.7,7.7v14H204.2V330.4h103.5v123.3c0,4.3,3.5,7.7,7.7,7.7s7.7-3.5,7.7-7.7v-131c0-4.3-3.5-7.7-7.7-7.7h-119
			c-4.3,0-7.7,3.5-7.7,7.7v173.5h-87.1c-19.6,0-35.5-15.9-35.5-35.5v-218c0-4.3-3.5-7.7-7.7-7.7s-7.7,3.5-7.7,7.7v218
			c0,28.1,22.9,51,51,51h94.8h119h94.8c28.1,0,51-22.9,51-51V244.8C461.3,240.5,457.8,237.1,453.5,237.1z"/>
	</g>
</g>
<g>
	<g>
		<path class="st0" d="M509.7,252.5L259.8,2.6c-1.5-1.5-3.4-2.3-5.5-2.3s-4,0.8-5.5,2.3L2.3,249.2c-3,3-3,7.9,0,11c3,3,7.9,3,11,0
			L254.3,19l244.4,244.4c1.5,1.5,3.5,2.3,5.5,2.3s4-0.8,5.5-2.3C512.8,260.4,512.8,255.5,509.7,252.5z"/>
	</g>
</g>
<g>
	<g>
		<path class="st0" d="M256,114.8c-23.9,0-43.3,19.4-43.3,43.3s19.4,43.3,43.3,43.3s43.3-19.4,43.3-43.3S279.9,114.8,256,114.8z
			 M256,185.9c-15.3,0-27.8-12.5-27.8-27.8s12.5-27.8,27.8-27.8s27.8,12.5,27.8,27.8S271.3,185.9,256,185.9z"/>
	</g>
</g>
</svg>
