<?xml version="1.0" encoding="iso-8859-1"?>
<!-- Generator: Adobe Illustrator 19.0.0, SVG Export Plug-In . SVG Version: 6.00 Build 0)  -->
<svg version="1.1" id="Layer_1" xmlns="http://www.w3.org/2000/svg" xmlns:xlink="http://www.w3.org/1999/xlink" x="0px" y="0px"
	 viewBox="0 0 512.001 512.001" style="enable-background:new 0 0 512.001 512.001;" xml:space="preserve">
<path style="fill:#F6E27D;" d="M312.057,149.565L11.188,450.433c-14.243,14.244-14.425,37.155-0.407,51.173
	c14.017,14.016,36.927,13.836,51.17-0.406l300.869-300.869"/>
<path style="fill:#F5DC60;" d="M337.845,175.354L11.198,502.002c14.051,13.607,36.648,13.298,50.754-0.802l300.869-300.869
	L337.845,175.354z"/>
<g>
	<polygon style="fill:#F8E99B;" points="483.19,28.429 450.22,125.632 511.615,207.895 408.979,206.585 349.717,290.381 
		319.244,192.371 221.229,161.896 305.033,102.638 303.72,0 385.981,61.392 	"/>
	
		<rect x="287.533" y="360.748" transform="matrix(0.7071 -0.7071 0.7071 0.7071 -178.4233 327.2114)" style="fill:#F8E99B;" width="36.469" height="36.467"/>
</g>
<rect x="105.176" y="190.56" transform="matrix(0.7071 -0.7071 0.7071 0.7071 -111.4943 148.4195)" style="fill:#F5DC60;" width="36.47" height="36.47"/>
<rect x="175.16" y="29.558" transform="matrix(0.7071 -0.7071 0.7071 0.7071 22.8495 150.7493)" style="fill:#F8E99B;" width="36.47" height="36.469"/>
<polygon style="fill:#F6E27D;" points="408.979,206.582 511.615,207.893 450.221,125.629 482.378,30.823 319.621,193.577 
	349.718,290.381 "/>
<g>
</g>
<g>
</g>
<g>
</g>
<g>
</g>
<g>
</g>
<g>
</g>
<g>
</g>
<g>
</g>
<g>
</g>
<g>
</g>
<g>
</g>
<g>
</g>
<g>
</g>
<g>
</g>
<g>
</g>
</svg>
