<?xml version="1.0" encoding="utf-8"?>
<!-- Generator: Adobe Illustrator 21.1.0, SVG Export Plug-In . SVG Version: 6.00 Build 0)  -->
<svg version="1.1" id="Capa_1" xmlns="http://www.w3.org/2000/svg" xmlns:xlink="http://www.w3.org/1999/xlink" x="0px" y="0px"
	 viewBox="0 0 512 512" style="enable-background:new 0 0 512 512;" xml:space="preserve">
<style type="text/css">
	.st0{fill:#FEBE7A;}
</style>
<g>
	<g>
		<path class="st0" d="M504.3,93.7c4.2,0,7.7-3.4,7.7-7.7V76c0-24.5-20-44.5-44.5-44.5h-423C20,31.5,0,51.5,0,76v225.2v57.3
			C0,383.1,20,403,44.5,403h149.6v62.1h-26.2c-4.2,0-7.7,3.4-7.7,7.7s3.4,7.7,7.7,7.7h33.9h108.5h33.9c4.2,0,7.7-3.4,7.7-7.7
			s-3.4-7.7-7.7-7.7h-26.2V403h149.6c24.5,0,44.5-20,44.5-44.5v-57.3V114.6c0-4.2-3.4-7.7-7.7-7.7s-7.7,3.4-7.7,7.7v178.9H79.8
			c-4.2,0-7.7,3.4-7.7,7.7s3.4,7.7,7.7,7.7h416.9v49.7c0,16.1-13.1,29.1-29.1,29.1H310.3H201.7H44.5c-16.1,0-29.1-13.1-29.1-29.1
			v-49.7h24.6c4.2,0,7.7-3.4,7.7-7.7s-3.4-7.7-7.7-7.7H15.3V76c0-16.1,13.1-29.2,29.1-29.2h423c16.1,0,29.1,13.1,29.1,29.2v10.1
			C496.7,90.3,500.1,93.7,504.3,93.7z M209.4,403h93.2v62.1h-93.2L209.4,403L209.4,403z"/>
	</g>
</g>
<g>
	<g>
		<circle class="st0" cx="256" cy="346.9" r="7.7"/>
	</g>
</g>
</svg>
