<?xml version="1.0" encoding="utf-8"?>
<!-- Generator: Adobe Illustrator 21.1.0, SVG Export Plug-In . SVG Version: 6.00 Build 0)  -->
<svg version="1.1" id="Capa_1" xmlns="http://www.w3.org/2000/svg" xmlns:xlink="http://www.w3.org/1999/xlink" x="0px" y="0px"
	 viewBox="0 0 512 512" style="enable-background:new 0 0 512 512;" xml:space="preserve">
<style type="text/css">
	.st0{fill:#FFFFFF;}
</style>
<g>
	<g>
		<path class="st0" d="M386.9,412.3h-40.7c-4.4,0-8,3.6-8,8c0,4.4,3.6,8,8,8h40.7c18.7,0,34,15.2,34,34c0,18.7-15.2,34-34,34H125.1
			c-18.7,0-34-15.2-34-34s15.2-34,34-34h81.7c24.7,24.2,43.2,38.6,44.3,39.5c1.4,1.1,3.1,1.7,4.9,1.7c1.6,0,3.2-0.5,4.6-1.5
			c1.8-1.3,44.5-32.1,87.8-82.9c25.5-29.9,45.9-60.5,60.5-90.9c18.4-38.3,27.8-76.5,27.8-113.4c0-46.8-17.8-91.2-50.2-125
			c-3-3.2-8.1-3.3-11.2-0.2c-3.2,3-3.3,8.1-0.2,11.2c29.5,30.8,45.7,71.3,45.7,114c0,34.5-8.8,70.2-26.1,106.3
			c-14,29.1-33.6,58.5-58.1,87.3c-33.8,39.7-68.1,67.4-80.4,77c-12.3-10.1-46.7-39.6-80.7-80.4C137,324.7,91.2,254.3,91.2,180.7
			c0-90.9,73.9-164.8,164.8-164.8c33,0,64.9,9.7,92.2,28.1c3.6,2.5,8.6,1.5,11-2.1c2.5-3.6,1.5-8.6-2.1-11C327.2,10.7,292.2,0,256,0
			C156.3,0,75.3,81.1,75.3,180.7c0,34.8,9.4,71.6,27.8,109.4c14.6,30,34.9,60.6,60.4,91.2c9.4,11.2,18.7,21.6,27.6,31h-66
			c-27.5,0-49.9,22.4-49.9,49.9S97.6,512,125.1,512h261.8c27.5,0,49.9-22.4,49.9-49.9C436.7,434.7,414.4,412.3,386.9,412.3z"/>
	</g>
</g>
<g>
	<g>
		<path class="st0" d="M255.2,98.9c-35.9,0-65.2,29.2-65.2,65.2s29.2,65.2,65.2,65.2c35.9,0,65.2-29.2,65.2-65.2
			S291.1,98.9,255.2,98.9z M255.2,213.4c-27.2,0-49.3-22.1-49.3-49.3s22.1-49.3,49.3-49.3s49.3,22.1,49.3,49.3
			S282.4,213.4,255.2,213.4z"/>
	</g>
</g>
</svg>
