<svg xmlns="http://www.w3.org/2000/svg" viewBox="0 0 126.41 22.92"><defs><style>.cls-1,.cls-2{fill:#fff;}.cls-1{stroke:#000;stroke-miterlimit:10;stroke-width:0.16px;}</style></defs><title>Recurso 4</title><g id="Capa_2" data-name="Capa 2"><g id="Capa_1-2" data-name="Capa 1"><path d="M.56,16.9a9.35,9.35,0,0,0,4,.91c2.28,0,3.61-1,3.61-2.38s-.92-2-3.25-2.77C2.1,11.85.36,10.67.36,8.71c0-2.17,2.23-3.78,5.58-3.78a9.41,9.41,0,0,1,3.82.68L9.15,7.08a8.19,8.19,0,0,0-3.28-.66c-2.36,0-3.25,1.14-3.25,2.09,0,1.3,1,1.94,3.43,2.69,2.92.91,4.41,2,4.41,4.09s-2,4-6,4A10.64,10.64,0,0,1,0,18.41Z"/><path d="M17.65,5.15V11H26V5.15h2.25V19.09H26V12.56H17.65v6.53H15.42V5.15Z"/><path d="M36.84,14.71,35,19.09H32.74L38.61,5.15H41.3l5.89,13.94H44.81L43,14.71ZM42.5,13.3l-1.69-4c-.38-.91-.64-1.74-.9-2.54h-.05c-.26.83-.54,1.67-.87,2.52l-1.69,4Z"/><path d="M66.1,13C66,11,65.82,8.69,65.85,7h-.08c-.59,1.63-1.31,3.37-2.18,5.29l-3,6.76H58.85l-2.79-6.64a54,54,0,0,1-2-5.42H54c-.05,1.74-.18,4.07-.33,6.16l-.46,6H51.09l1.2-13.94h2.84l2.95,6.74a49,49,0,0,1,1.74,4.69h.08a46,46,0,0,1,1.82-4.69L64.8,5.15h2.84l1.08,13.94H66.54Z"/><path d="M76.61,14.71l-1.79,4.38H72.51L78.38,5.15h2.69L87,19.09H84.58l-1.84-4.38Zm5.66-1.41-1.69-4c-.38-.91-.64-1.74-.9-2.54h-.05c-.26.83-.54,1.67-.87,2.52l-1.69,4Z"/><path d="M91.42,19.09V5.15h2.43l5.53,7.05a38.05,38.05,0,0,1,3.1,4.53l.05,0a50,50,0,0,1-.26-5.73V5.15h2.1V19.09h-2.25L96.64,12a42.78,42.78,0,0,1-3.23-4.65l-.08,0c.13,1.76.18,3.43.18,5.75v6Z"/><path d="M113.63,10.42,114,8.88a24.71,24.71,0,0,1,.68-2.74c.14-.12-.36-.73,2.35-.76s3.55.06,3.81.32a9.07,9.07,0,0,1,.55,2.93C121.4,9.3,113.63,10.42,113.63,10.42Z"/><rect x="116.4" y="1.64" width="2.82" height="1.86" rx="0.81" ry="0.81"/><path d="M117.57,22.92c-4.88,0-8.84-5.14-8.84-11.46S112.69,0,117.57,0s8.84,5.14,8.84,11.46S122.44,22.92,117.57,22.92Zm0-22.16c-4.46,0-8.09,4.8-8.09,10.71s3.63,10.71,8.09,10.71,8.09-4.8,8.09-10.71S122,.75,117.57.75Z"/><path d="M118.21,9l-2.45-2.45.68-1,0,0a2.43,2.43,0,0,0,.74-.4c0-.1.08-.31,1.19-.26l.91,0-.75.2a3.08,3.08,0,0,0,.43.41,1.11,1.11,0,0,1,0,1.58Zm-2.09-2.49,2,2,.69-1.56v0s.58-.73,0-1.2a2,2,0,0,1-.56-.6,2.69,2.69,0,0,0-.77.06c-.05.17-.34.36-.87.57Zm1.38-1.37h0Z"/><path d="M119.33,3.83a.17.17,0,0,1-.06-.13,3.17,3.17,0,0,1,0-.45.14.14,0,0,1,0-.07c0-.08.05-.24-.18-.47s-1.13,0-1.33,0a9.41,9.41,0,0,0-1.47-.07c-.18.11-.24,1.07-.24,1.07a.46.46,0,0,0-.31.57,1.94,1.94,0,0,0,0,.24c.1.39.28.51.69.48a.18.18,0,0,1,.11.06l.44.44a1.58,1.58,0,0,0,.89.2.11.11,0,0,1,0-.07q.33-.27.68-.52a.32.32,0,0,1,.2-.05.46.46,0,0,0,.51-.3,1.5,1.5,0,0,0,.1-.28C119.56,4.26,119.59,4,119.33,3.83Z"/><path d="M116.61,4.22h0c0,.17,0,.35.1.51s.31.41.49.6a.79.79,0,0,0,.48.2.89.89,0,0,0,.84-.32,1.73,1.73,0,0,0,.16-.16.56.56,0,0,0,.11-.23c.07-.49.12-1,.19-1.47a.39.39,0,0,0-.13-.4c-.13-.1-.24,0-.35,0a1.33,1.33,0,0,1-.9.16,4.85,4.85,0,0,1-.47-.16.36.36,0,0,0-.53.37C116.57,3.65,116.59,3.94,116.61,4.22Z"/><path d="M116.51,3.85c0-.15,0-.29,0-.42-.06-.44.24-.69.65-.51a1.46,1.46,0,0,0,1.36,0,.35.35,0,0,1,.54.37c0,.14,0,.27-.06.41a2,2,0,0,0,0,.24H119a.58.58,0,0,0,.09-.17c0-.23.07-.46.09-.69a.31.31,0,0,0-.07-.19c-.14-.19-.28-.21-.6-.06a1.65,1.65,0,0,1-1.08.06,8.86,8.86,0,0,0-.91-.1s-.11,0-.12,0a3.76,3.76,0,0,0-.16.68A.3.3,0,0,0,116.51,3.85Z"/><path d="M116.52,4.27a1.18,1.18,0,0,1,0-.12.22.22,0,0,0-.19-.26c-.19,0-.32,0-.34.19a.84.84,0,0,0,.17.71.61.61,0,0,0,.3.14s.13-.1.12-.12,0-.31-.25-.34c.17-.08.09-.16,0-.23s-.18-.07-.29,0c0-.07.09-.17.11-.16A2.69,2.69,0,0,1,116.52,4.27Z"/><path d="M119.11,4.43c-.21,0-.24,0-.26.29,0,.1,0,.22.11.26a.26.26,0,0,0,.31-.14,1,1,0,0,0,.14-.66.39.39,0,0,0-.2-.24c-.12,0-.2.06-.26.19.24-.08.25-.08.32,0a.22.22,0,0,0-.31.14Z"/><path class="cls-1" d="M116.61,4.22c0-.29,0-.57-.06-.86a.36.36,0,0,1,.53-.37,4.85,4.85,0,0,0,.47.16,1.33,1.33,0,0,0,.9-.16c.11-.05.22-.14.35,0a.39.39,0,0,1,.13.4c-.07.49-.12,1-.19,1.47a.56.56,0,0,1-.11.23,1.73,1.73,0,0,1-.16.16.89.89,0,0,1-.84.32.79.79,0,0,1-.48-.2c-.18-.18-.41-.33-.49-.6s-.07-.34-.1-.51Zm.46.53a3.11,3.11,0,0,0,.29.43.5.5,0,0,0,.31.15.61.61,0,0,0,.57-.65c0-.09,0-.15-.17-.12s-.52.1-.78.15Zm.52-1h-.07a5.17,5.17,0,0,0-.09.54c0,.07,0,.2.09.22a.32.32,0,0,0,.4-.09h-.11c-.3.07-.34,0-.29-.27C117.55,4,117.57,3.84,117.6,3.71Zm-.86,0,.48-.21A.41.41,0,0,0,116.73,3.66Zm1.56-.26.41.22C118.68,3.45,118.57,3.38,118.3,3.4Z"/><path d="M117.79,5.6h-.17a.83.83,0,0,1-.51-.21L117,5.24a1.06,1.06,0,0,1-.36-.49,3.08,3.08,0,0,1-.07-.36l0-.16a0,0,0,0,1,0,0l0,0h0l0-.22c0-.2,0-.4,0-.6a.43.43,0,0,1,.16-.38.46.46,0,0,1,.44,0l.1,0a3.5,3.5,0,0,0,.37.12,1.3,1.3,0,0,0,.87-.16l.05,0a.29.29,0,0,1,.35,0,.44.44,0,0,1,.15.45c0,.24-.06.47-.09.71s-.06.5-.1.75a.61.61,0,0,1-.12.25.65.65,0,0,1-.1.11l-.06.06A1,1,0,0,1,117.79,5.6Zm-1.17-1.33,0,.11a3,3,0,0,0,.07.35,1,1,0,0,0,.33.44l.14.13a.75.75,0,0,0,.46.18.83.83,0,0,0,.8-.31l.07-.06L118.6,5a.54.54,0,0,0,.1-.2c0-.25.07-.5.1-.75s.06-.48.09-.71a.34.34,0,0,0-.11-.36c-.08-.06-.15,0-.25,0l-.06,0a1.38,1.38,0,0,1-.93.16,3.57,3.57,0,0,1-.38-.13l-.1,0a.36.36,0,0,0-.35,0,.34.34,0,0,0-.12.3c0,.2,0,.4,0,.6l0,.26A0,0,0,0,1,116.62,4.27Zm1.07,1.12h0a.55.55,0,0,1-.34-.17,1.65,1.65,0,0,1-.2-.29L117,4.78a0,0,0,0,1,0,0l0,0,.22,0,.23,0c.18,0,.37-.06.55-.11a.19.19,0,0,1,.16,0,.2.2,0,0,1,.07.15.64.64,0,0,1-.18.5A.59.59,0,0,1,117.7,5.39Zm-.54-.6.06.09a1.56,1.56,0,0,0,.19.27.46.46,0,0,0,.27.14.49.49,0,0,0,.37-.17.55.55,0,0,0,.15-.43s0-.07,0-.08h-.08c-.18,0-.37.08-.56.11l-.23,0Zm.52-.25a.46.46,0,0,1-.17,0c-.08,0-.13-.18-.12-.27a3.14,3.14,0,0,1,.06-.39l0-.15a0,0,0,0,1,.05,0h.07l0,0a0,0,0,0,1,0,0l0,.12,0,.27c0,.06,0,.2,0,.23s.17,0,.23,0h.11a0,0,0,0,1,0,0,0,0,0,0,1,0,.05A.36.36,0,0,1,117.68,4.54Zm.05-.1h0Zm-1-.73,0,0a0,0,0,0,1,0-.06.46.46,0,0,1,.53-.23,0,0,0,0,1,0,.09l-.48.21ZM117,3.5l-.06,0Zm1.71.17h0l-.41-.22a0,0,0,0,1,0-.09c.29,0,.42.06.46.26a0,0,0,0,1,0,0Zm-.2-.21.11.06A.2.2,0,0,0,118.5,3.46Z"/><path d="M116.51,3.85a.3.3,0,0,1-.26-.36,3.76,3.76,0,0,1,.16-.68s.08-.05.12,0a8.86,8.86,0,0,1,.91.1,1.65,1.65,0,0,0,1.08-.06c.32-.15.46-.12.6.06a.31.31,0,0,1,.07.19c0,.23-.05.46-.09.69a.58.58,0,0,1-.09.17H119a2,2,0,0,1,0-.24c0-.14.05-.27.06-.41a.35.35,0,0,0-.54-.37,1.46,1.46,0,0,1-1.36,0c-.41-.18-.71.07-.65.51C116.49,3.57,116.5,3.7,116.51,3.85Z"/><path class="cls-2" d="M116.52,4.27a2.69,2.69,0,0,0-.33-.18s-.08.09-.11.16c.1-.08.2-.14.29,0s.14.15,0,.23c.23,0,.2.21.25.34s-.09.12-.12.12a.61.61,0,0,1-.3-.14.84.84,0,0,1-.17-.71c0-.16.15-.23.34-.19a.22.22,0,0,1,.19.26A1.18,1.18,0,0,0,116.52,4.27Z"/><path d="M116.46,5h0a.65.65,0,0,1-.32-.15.88.88,0,0,1-.19-.75.27.27,0,0,1,.11-.19.37.37,0,0,1,.29,0,.27.27,0,0,1,.23.31.88.88,0,0,0,0,.1v0a0,0,0,0,1,0,0h0l-.05,0a.15.15,0,0,1,0,.12.13.13,0,0,1,0,.06.31.31,0,0,1,.16.25.59.59,0,0,0,0,.09s0,.07,0,.1S116.51,5,116.46,5Zm0-.09Zm-.23-1a.22.22,0,0,0-.13,0,.18.18,0,0,0-.07.13.79.79,0,0,0,.16.68.57.57,0,0,0,.27.12l.07-.07,0-.09c0-.1,0-.18-.18-.2a0,0,0,0,1,0-.09c.06,0,.07-.05.08-.06s0,0,0-.07l0,0a.12.12,0,0,0-.07-.06s-.09,0-.15.07a0,0,0,0,1-.07-.05s.08-.16.13-.18h0a1.83,1.83,0,0,1,.26.13h0s0,0,0,0a.18.18,0,0,0-.16-.21Z"/><path class="cls-2" d="M119.11,4.43,119,4.3a.22.22,0,0,1,.31-.14c-.07-.12-.08-.12-.32,0,.06-.12.13-.24.26-.19a.39.39,0,0,1,.2.24,1,1,0,0,1-.14.66A.26.26,0,0,1,119,5c-.14,0-.11-.15-.11-.26C118.86,4.46,118.89,4.43,119.11,4.43Z"/><path d="M119,5h-.09c-.17,0-.15-.18-.15-.27v0c0-.22,0-.3.19-.32l-.06-.05a0,0,0,0,1,0-.05.3.3,0,0,1,.09-.14h0a0,0,0,0,1-.06-.07c0-.08.14-.28.32-.21a.44.44,0,0,1,.23.28,1,1,0,0,1-.15.69A.3.3,0,0,1,119,5Zm0-.55c-.15,0-.17,0-.18.24v0c0,.11,0,.16.07.18a.21.21,0,0,0,.26-.11.91.91,0,0,0,.14-.63.35.35,0,0,0-.17-.21c-.05,0-.09,0-.14.06.15,0,.19,0,.26.1a0,0,0,0,1-.06.07c-.12,0-.2,0-.24.08l.12.1a0,0,0,0,1,0,.05.05.05,0,0,1,0,0Z"/><path d="M117.08,4.75l.22,0c.26,0,.52-.08.78-.15s.16,0,.17.12a.61.61,0,0,1-.57.65.5.5,0,0,1-.31-.15A3.11,3.11,0,0,1,117.08,4.75Zm.51,0,.5,0s.06-.05.09-.08l0,0-.55.13-.34,0v.07s.09,0,.13,0A1.61,1.61,0,0,0,117.58,4.78Zm.53.07a.92.92,0,0,0-.64.08c-.12.06-.12.14,0,.23a.32.32,0,0,0,.35.07A.42.42,0,0,0,118.11,4.85Z"/><path d="M117.6,3.71c0,.13,0,.26-.07.39-.06.3,0,.34.29.27h.11a.32.32,0,0,1-.4.09c-.05,0-.1-.15-.09-.22a5.17,5.17,0,0,1,.09-.54Z"/><path d="M116.73,3.66a.41.41,0,0,1,.48-.21Z"/><path d="M118.3,3.4c.27,0,.38.05.41.22Z"/><path class="cls-2" d="M118.11,4.85a.42.42,0,0,1-.31.39.32.32,0,0,1-.35-.07c-.09-.09-.09-.17,0-.23A.92.92,0,0,1,118.11,4.85Z"/><path class="cls-2" d="M117.59,4.78l.55-.13,0,0s-.06.08-.09.08l-.5,0Z"/><path class="cls-2" d="M117.58,4.78a1.61,1.61,0,0,1-.21.12s-.09,0-.13,0V4.81l.34,0Z"/><path class="cls-2" d="M114.93,19.35h0a9.19,9.19,0,0,1-.73.56c-.32.2-.5.42-.31.8a.58.58,0,0,0,.82.28,7.91,7.91,0,0,1,1.15-.45.79.79,0,0,0,.67-.72c.17-.87.32-1.75.48-2.62.1-.53.21-1.06.29-1.59s.17-1.09.25-1.63h.14a4,4,0,0,1,.12,1,5.25,5.25,0,0,0,.31,2.27,3.11,3.11,0,0,1,.28,1.05,5.32,5.32,0,0,0,.48,2.49c0,.09.17.22.24.22a7,7,0,0,0,1.18-.18c.31-.08.32-.37.21-.61s-.35-.64-.48-.87a2,2,0,0,1-.67.2c-.17,0-.32-.21-.49-.32l.08-.15,1.39.1v-4.1h-.15l-.27.83a2.42,2.42,0,0,1-.28-.55c-.06-.35,0-.72-.13-1.06a1.8,1.8,0,0,0-.44-.81c-.5-.47-1.07-.88-1.69-1.39-.16.41-.34.86-.5,1.32s-.3,1-.48,1.5c-.09.24-.27.2-.37,0a1.78,1.78,0,0,1-.12-.5c-.11-.66-.65-.94-1.09-1.35A14.4,14.4,0,0,0,114.93,19.35Z"/><path class="cls-2" d="M116.31,5.65a3.84,3.84,0,0,0-.84.34,3.61,3.61,0,0,0-1.32,3.25c0,.46,0,.93,0,1.39,0,.14.07.36.18.41.52.25.74.91,1.4,1,.1,0,.16.28.27.41s.38.43.6.67c.49-.71.67-1.48,1.46-1.84a2,2,0,0,0-.23-.5,5,5,0,0,1-1.17-2.92C116.63,7.13,116.45,6.44,116.31,5.65Z"/><path class="cls-2" d="M114.08,11.25c-.2.4-.27.76.18,1.07a7.54,7.54,0,0,1,1,.77c.38.36.69.79,1,1.18.35-.66.31-.73-.25-1.2a14.9,14.9,0,0,1-1.14-1.16.38.38,0,0,1-.08-.16A.61.61,0,0,0,114.08,11.25Z"/><path d="M114.93,19.35a14.4,14.4,0,0,1-.1-6.25c.43.41,1,.69,1.09,1.35a1.78,1.78,0,0,0,.12.5c.1.2.28.23.37,0,.18-.49.31-1,.48-1.5s.34-.9.5-1.32c.63.51,1.19.92,1.69,1.39a1.8,1.8,0,0,1,.44.81c.09.34.06.71.13,1.06a2.42,2.42,0,0,0,.28.55l.27-.83h.15v4.1l-1.39-.1-.08.15c.16.11.32.31.49.32a2,2,0,0,0,.67-.2c.13.22.33.54.48.87s.1.53-.21.61a7,7,0,0,1-1.18.18c-.08,0-.21-.12-.24-.22a5.32,5.32,0,0,1-.48-2.49,3.11,3.11,0,0,0-.28-1.05A5.25,5.25,0,0,1,117.8,15a4,4,0,0,0-.12-1h-.14c-.08.54-.16,1.09-.25,1.63s-.2,1.06-.29,1.59c-.16.87-.31,1.75-.48,2.62a.79.79,0,0,1-.67.72,7.91,7.91,0,0,0-1.15.45.58.58,0,0,1-.82-.28c-.19-.38,0-.6.31-.8a9.19,9.19,0,0,0,.73-.56c.35.33.79.28,1.18-.25Z"/><path d="M116.31,5.58c.14.8.32,1.5.38,2.21a5.11,5.11,0,0,0,1.17,2.94,2.07,2.07,0,0,1,.23.5c-.79.36-1,1.14-1.46,1.85-.22-.25-.42-.45-.6-.68s-.17-.4-.27-.41c-.66-.06-.88-.73-1.4-1-.1,0-.17-.27-.18-.41,0-.47,0-.93,0-1.4a3.65,3.65,0,0,1,1.32-3.28A3.82,3.82,0,0,1,116.31,5.58Z"/><path d="M114.08,11.25a.61.61,0,0,1,.77.5.38.38,0,0,0,.08.16,14.9,14.9,0,0,0,1.14,1.16c.56.47.6.54.25,1.2-.33-.39-.65-.81-1-1.18a7.54,7.54,0,0,0-1-.77C113.81,12,113.88,11.65,114.08,11.25Z"/><path d="M120.56,13.61l.32-.16.11.08-1.17,1.63a3.7,3.7,0,0,1,0-.93c.05-.18.27-.31.43-.45a2,2,0,0,1,.31-.19Z"/><path d="M122.41,10.76c0,.89-.68,1.38-1.18,2,.12-.82.77-1.33,1.18-2Z"/><path d="M114.74,12.59c-.78-.42-.9-1.25-1.19-2,.66.49.81,1.3,1.19,2Z"/><path class="cls-2" d="M114.93,19.35l1.17-.25c-.39.53-.83.59-1.18.25Z"/><path d="M115.48,8.07l.83-2.42.3,0,.34,1,.63,1.3,1.23,1.62s.65,1.4.65,1.52a9.2,9.2,0,0,1-.6,1.11l-.94.13-1.33-1Z"/><path d="M120.58,13.59h0Z"/><path d="M122.41,10.76l-.53-.56c-.12-.4-.23-.8-.35-1.2A8.13,8.13,0,0,0,121,7.43a5.5,5.5,0,0,0-2.06-1.84h-.11c-.3.86-1.14.66-1.71,1a2.91,2.91,0,0,1,.68-.43,2.49,2.49,0,0,0,.5-.24l.33-.28-.26,0h0a.84.84,0,0,1-.4.14c-.36.07-.73.11-1.1.17l-.22-.33a12.26,12.26,0,0,1,.31,1.91,4.76,4.76,0,0,0,1.16,3,.73.73,0,0,1,0,1.05c-.45.3-.47.36-.11.77a3.13,3.13,0,0,0,.41.3l1.44,1.19.8-.2c.15-.22.39-.44.42-.68a3.67,3.67,0,0,1,.73-1.71c.18-.25.35-.47.68-.45Zm-1.67.91-.11-.07c.25-.44.48-.89.77-1.31.06-.09.3-.07.46-.1Z"/><path class="cls-2" d="M116.54,5.62s1.14,1.42,1.14,1.9,1.13-1.92,1.25-1.93h-.28Z"/><rect x="114.76" y="2.66" width="6.21" height="0.28" rx="0.12" ry="0.12"/><path d="M115.49,16.24c1.66,0,2.17.51,2.77.51s2.13-.44,2.67-.44a1,1,0,0,1,.66.43l.39-6.32-.85-2.2-7,1-.32,3.55-.1,1.86,0,2.13h0A3.5,3.5,0,0,1,115.49,16.24Z"/></g></g></svg>