<svg xmlns="http://www.w3.org/2000/svg" viewBox="0 0 17.68 22.92"><defs><style>.cls-1,.cls-2{fill:#fff;}.cls-1{stroke:#000;stroke-miterlimit:10;stroke-width:0.16px;}</style></defs><title>Recurso 6</title><g id="Capa_2" data-name="Capa 2"><g id="Capa_1-2" data-name="Capa 1"><path d="M4.91,10.42l.38-1.55A24.71,24.71,0,0,1,6,6.13C6.1,6,5.6,5.4,8.32,5.37s3.55.06,3.81.32a9.07,9.07,0,0,1,.55,2.93C12.67,9.3,4.91,10.42,4.91,10.42Z"/><rect x="7.68" y="1.64" width="2.82" height="1.86" rx="0.81" ry="0.81"/><path d="M8.84,22.92C4,22.92,0,17.78,0,11.46S4,0,8.84,0s8.84,5.14,8.84,11.46S13.72,22.92,8.84,22.92ZM8.84.75C4.38.75.75,5.55.75,11.46S4.38,22.16,8.84,22.16s8.09-4.8,8.09-10.71S13.3.75,8.84.75Z"/><path d="M9.49,9,7,6.53l.68-1,0,0a2.43,2.43,0,0,0,.74-.4c0-.1.08-.31,1.19-.26l.91,0-.75.2a3.08,3.08,0,0,0,.43.41,1.11,1.11,0,0,1,0,1.58ZM7.4,6.49l2,2,.69-1.56v0s.58-.73,0-1.2a2,2,0,0,1-.56-.6,2.69,2.69,0,0,0-.77.06c-.05.17-.34.36-.87.57ZM8.78,5.12h0Z"/><path d="M10.61,3.83a.17.17,0,0,1-.06-.13,3.17,3.17,0,0,1,0-.45.14.14,0,0,1,0-.07c0-.08.05-.24-.18-.47s-1.13,0-1.33,0a9.41,9.41,0,0,0-1.47-.07c-.18.11-.24,1.07-.24,1.07a.46.46,0,0,0-.31.57,1.94,1.94,0,0,0,0,.24c.1.39.28.51.69.48A.18.18,0,0,1,8,5.1l.44.44a1.58,1.58,0,0,0,.89.2.11.11,0,0,1,0-.07q.33-.27.68-.52a.32.32,0,0,1,.2-.05.46.46,0,0,0,.51-.3,1.5,1.5,0,0,0,.1-.28C10.84,4.26,10.87,4,10.61,3.83Z"/><path d="M7.89,4.22h0c0,.17,0,.35.1.51s.31.41.49.6a.79.79,0,0,0,.48.2.89.89,0,0,0,.84-.32,1.73,1.73,0,0,0,.16-.16A.56.56,0,0,0,10,4.83c.07-.49.12-1,.19-1.47a.39.39,0,0,0-.13-.4c-.13-.1-.24,0-.35,0a1.33,1.33,0,0,1-.9.16A4.85,4.85,0,0,1,8.36,3a.36.36,0,0,0-.53.37C7.84,3.65,7.87,3.94,7.89,4.22Z"/><path d="M7.79,3.85c0-.15,0-.29,0-.42C7.69,3,8,2.75,8.4,2.93a1.46,1.46,0,0,0,1.36,0,.35.35,0,0,1,.54.37c0,.14,0,.27-.06.41a2,2,0,0,0,0,.24h.05a.58.58,0,0,0,.09-.17c0-.23.07-.46.09-.69a.31.31,0,0,0-.07-.19c-.14-.19-.28-.21-.6-.06a1.65,1.65,0,0,1-1.08.06,8.86,8.86,0,0,0-.91-.1s-.11,0-.12,0a3.76,3.76,0,0,0-.16.68A.3.3,0,0,0,7.79,3.85Z"/><path d="M7.79,4.27a1.18,1.18,0,0,1,0-.12.22.22,0,0,0-.19-.26c-.19,0-.32,0-.34.19a.84.84,0,0,0,.17.71.61.61,0,0,0,.3.14s.13-.1.12-.12,0-.31-.25-.34c.17-.08.09-.16,0-.23s-.18-.07-.29,0c0-.07.09-.17.11-.16A2.69,2.69,0,0,1,7.79,4.27Z"/><path d="M10.38,4.43c-.21,0-.24,0-.26.29,0,.1,0,.22.11.26a.26.26,0,0,0,.31-.14,1,1,0,0,0,.14-.66.39.39,0,0,0-.2-.24c-.12,0-.2.06-.26.19.24-.08.25-.08.32,0a.22.22,0,0,0-.31.14Z"/><path class="cls-1" d="M7.89,4.22c0-.29,0-.57-.06-.86A.36.36,0,0,1,8.36,3a4.85,4.85,0,0,0,.47.16A1.33,1.33,0,0,0,9.73,3c.11-.05.22-.14.35,0a.39.39,0,0,1,.13.4c-.07.49-.12,1-.19,1.47a.56.56,0,0,1-.11.23,1.73,1.73,0,0,1-.16.16.89.89,0,0,1-.84.32.79.79,0,0,1-.48-.2C8.25,5.16,8,5,7.94,4.74s-.07-.34-.1-.51Zm.46.53a3.11,3.11,0,0,0,.29.43A.5.5,0,0,0,9,5.34a.61.61,0,0,0,.57-.65c0-.09,0-.15-.17-.12s-.52.1-.78.15Zm.52-1H8.8a5.17,5.17,0,0,0-.09.54c0,.07,0,.2.09.22a.32.32,0,0,0,.4-.09H9.09c-.3.07-.34,0-.29-.27C8.83,4,8.85,3.84,8.87,3.71ZM8,3.66l.48-.21A.41.41,0,0,0,8,3.66ZM9.57,3.4l.41.22C10,3.45,9.85,3.38,9.57,3.4Z"/><path d="M9.07,5.6H8.9a.83.83,0,0,1-.51-.21l-.14-.13a1.06,1.06,0,0,1-.36-.49,3.08,3.08,0,0,1-.07-.36l0-.16a0,0,0,0,1,0,0l0,0h0l0-.22c0-.2,0-.4,0-.6A.43.43,0,0,1,7.94,3a.46.46,0,0,1,.44,0l.1,0a3.5,3.5,0,0,0,.37.12A1.3,1.3,0,0,0,9.71,3l.05,0a.29.29,0,0,1,.35,0,.44.44,0,0,1,.15.45c0,.24-.06.47-.09.71s-.06.5-.1.75a.61.61,0,0,1-.12.25.65.65,0,0,1-.1.11l-.06.06A1,1,0,0,1,9.07,5.6ZM7.9,4.27l0,.11A3,3,0,0,0,8,4.73a1,1,0,0,0,.33.44l.14.13a.75.75,0,0,0,.46.18.83.83,0,0,0,.8-.31l.07-.06L9.87,5a.54.54,0,0,0,.1-.2c0-.25.07-.5.1-.75s.06-.48.09-.71A.34.34,0,0,0,10.06,3c-.08-.06-.15,0-.25,0L9.75,3a1.38,1.38,0,0,1-.93.16,3.57,3.57,0,0,1-.38-.13l-.1,0a.36.36,0,0,0-.35,0,.34.34,0,0,0-.12.3c0,.2,0,.4,0,.6l0,.26A0,0,0,0,1,7.9,4.27ZM9,5.39h0a.55.55,0,0,1-.34-.17,1.65,1.65,0,0,1-.2-.29l-.09-.15a0,0,0,0,1,0,0l0,0,.22,0,.23,0c.18,0,.37-.06.55-.11a.19.19,0,0,1,.16,0,.2.2,0,0,1,.07.15.64.64,0,0,1-.18.5A.59.59,0,0,1,9,5.39Zm-.54-.6.06.09a1.56,1.56,0,0,0,.19.27A.46.46,0,0,0,9,5.29a.49.49,0,0,0,.37-.17.55.55,0,0,0,.15-.43s0-.07,0-.08H9.37c-.18,0-.37.08-.56.11l-.23,0ZM9,4.54a.46.46,0,0,1-.17,0c-.08,0-.13-.18-.12-.27a3.14,3.14,0,0,1,.06-.39l0-.15a0,0,0,0,1,.05,0h.07l0,0a0,0,0,0,1,0,0l0,.12,0,.27c0,.06,0,.2,0,.23s.17,0,.23,0h.11a0,0,0,0,1,0,0,0,0,0,0,1,0,.05A.36.36,0,0,1,9,4.54ZM9,4.43H9ZM8,3.71l0,0a0,0,0,0,1,0-.06A.46.46,0,0,1,8.5,3.4a0,0,0,0,1,0,.09L8,3.7Zm.26-.21-.06,0ZM10,3.66h0l-.41-.22a0,0,0,0,1,0-.09c.29,0,.42.06.46.26a0,0,0,0,1,0,0Zm-.2-.21.11.06A.2.2,0,0,0,9.78,3.46Z"/><path d="M7.79,3.85a.3.3,0,0,1-.26-.36,3.76,3.76,0,0,1,.16-.68s.08-.05.12,0a8.86,8.86,0,0,1,.91.1A1.65,1.65,0,0,0,9.8,2.82c.32-.15.46-.12.6.06a.31.31,0,0,1,.07.19c0,.23-.05.46-.09.69a.58.58,0,0,1-.09.17h-.05a2,2,0,0,1,0-.24c0-.14.05-.27.06-.41a.35.35,0,0,0-.54-.37,1.46,1.46,0,0,1-1.36,0c-.41-.18-.71.07-.65.51C7.77,3.57,7.77,3.7,7.79,3.85Z"/><path class="cls-2" d="M7.79,4.27a2.69,2.69,0,0,0-.33-.18s-.08.09-.11.16c.1-.08.2-.14.29,0s.14.15,0,.23c.23,0,.2.21.25.34s-.09.12-.12.12a.61.61,0,0,1-.3-.14.84.84,0,0,1-.17-.71c0-.16.15-.23.34-.19a.22.22,0,0,1,.19.26A1.18,1.18,0,0,0,7.79,4.27Z"/><path d="M7.73,5h0a.65.65,0,0,1-.32-.15.88.88,0,0,1-.19-.75.27.27,0,0,1,.11-.19.37.37,0,0,1,.29,0,.27.27,0,0,1,.23.31.88.88,0,0,0,0,.1v0a0,0,0,0,1,0,0h0l-.05,0a.15.15,0,0,1,0,.12.13.13,0,0,1,0,.06.31.31,0,0,1,.16.25.59.59,0,0,0,0,.09s0,.07,0,.1S7.78,5,7.73,5Zm0-.09Zm-.23-1a.22.22,0,0,0-.13,0,.18.18,0,0,0-.07.13.79.79,0,0,0,.16.68.57.57,0,0,0,.27.12l.07-.07,0-.09c0-.1,0-.18-.18-.2a0,0,0,0,1,0-.09c.06,0,.07-.05.08-.06s0,0,0-.07l0,0a.12.12,0,0,0-.07-.06s-.09,0-.15.07a0,0,0,0,1-.07-.05s.08-.16.13-.18h0a1.83,1.83,0,0,1,.26.13h0s0,0,0,0a.18.18,0,0,0-.16-.21Z"/><path class="cls-2" d="M10.38,4.43l-.15-.13a.22.22,0,0,1,.31-.14c-.07-.12-.08-.12-.32,0,.06-.12.13-.24.26-.19a.39.39,0,0,1,.2.24,1,1,0,0,1-.14.66.26.26,0,0,1-.31.14c-.14,0-.11-.15-.11-.26C10.14,4.46,10.17,4.43,10.38,4.43Z"/><path d="M10.3,5h-.09c-.17,0-.15-.18-.15-.27v0c0-.22,0-.3.19-.32l-.06-.05a0,0,0,0,1,0-.05.3.3,0,0,1,.09-.14h0a0,0,0,0,1-.06-.07c0-.08.14-.28.32-.21a.44.44,0,0,1,.23.28,1,1,0,0,1-.15.69A.3.3,0,0,1,10.3,5Zm0-.55c-.15,0-.17,0-.18.24v0c0,.11,0,.16.07.18a.21.21,0,0,0,.26-.11.91.91,0,0,0,.14-.63A.35.35,0,0,0,10.46,4c-.05,0-.09,0-.14.06.15,0,.19,0,.26.1a0,0,0,0,1-.06.07c-.12,0-.2,0-.24.08l.12.1a0,0,0,0,1,0,.05.05.05,0,0,1,0,0Z"/><path d="M8.35,4.75l.22,0c.26,0,.52-.08.78-.15s.16,0,.17.12A.61.61,0,0,1,9,5.34a.5.5,0,0,1-.31-.15A3.11,3.11,0,0,1,8.35,4.75Zm.51,0,.5,0s.06-.05.09-.08l0,0-.55.13-.34,0v.07s.09,0,.13,0A1.61,1.61,0,0,0,8.86,4.78Zm.53.07a.92.92,0,0,0-.64.08c-.12.06-.12.14,0,.23a.32.32,0,0,0,.35.07A.42.42,0,0,0,9.39,4.85Z"/><path d="M8.87,3.71c0,.13,0,.26-.07.39-.06.3,0,.34.29.27h.11a.32.32,0,0,1-.4.09c-.05,0-.1-.15-.09-.22A5.17,5.17,0,0,1,8.8,3.7Z"/><path d="M8,3.66a.41.41,0,0,1,.48-.21Z"/><path d="M9.57,3.4c.27,0,.38.05.41.22Z"/><path class="cls-2" d="M9.39,4.85a.42.42,0,0,1-.31.39.32.32,0,0,1-.35-.07c-.09-.09-.09-.17,0-.23A.92.92,0,0,1,9.39,4.85Z"/><path class="cls-2" d="M8.86,4.78l.55-.13,0,0s-.06.08-.09.08l-.5,0Z"/><path class="cls-2" d="M8.86,4.78a1.61,1.61,0,0,1-.21.12s-.09,0-.13,0V4.81l.34,0Z"/><path class="cls-2" d="M6.2,19.35h0a9.19,9.19,0,0,1-.73.56c-.32.2-.5.42-.31.8A.58.58,0,0,0,6,21a7.91,7.91,0,0,1,1.15-.45.79.79,0,0,0,.67-.72c.17-.87.32-1.75.48-2.62.1-.53.21-1.06.29-1.59s.17-1.09.25-1.63H9a4,4,0,0,1,.12,1,5.25,5.25,0,0,0,.31,2.27,3.11,3.11,0,0,1,.28,1.05,5.32,5.32,0,0,0,.48,2.49c0,.09.17.22.24.22a7,7,0,0,0,1.18-.18c.31-.08.32-.37.21-.61s-.35-.64-.48-.87a2,2,0,0,1-.67.2c-.17,0-.32-.21-.49-.32l.08-.15,1.39.1v-4.1h-.15l-.27.83a2.42,2.42,0,0,1-.28-.55c-.06-.35,0-.72-.13-1.06a1.8,1.8,0,0,0-.44-.81c-.5-.47-1.07-.88-1.69-1.39-.16.41-.34.86-.5,1.32s-.3,1-.48,1.5c-.09.24-.27.2-.37,0a1.78,1.78,0,0,1-.12-.5c-.11-.66-.65-.94-1.09-1.35A14.4,14.4,0,0,0,6.2,19.35Z"/><path class="cls-2" d="M7.59,5.65A3.84,3.84,0,0,0,6.75,6,3.61,3.61,0,0,0,5.43,9.24c0,.46,0,.93,0,1.39,0,.14.07.36.18.41.52.25.74.91,1.4,1,.1,0,.16.28.27.41s.38.43.6.67c.49-.71.67-1.48,1.46-1.84a2,2,0,0,0-.23-.5A5,5,0,0,1,8,7.84C7.9,7.13,7.73,6.44,7.59,5.65Z"/><path class="cls-2" d="M5.36,11.25c-.2.4-.27.76.18,1.07a7.54,7.54,0,0,1,1,.77c.38.36.69.79,1,1.18.35-.66.31-.73-.25-1.2a14.9,14.9,0,0,1-1.14-1.16.38.38,0,0,1-.08-.16A.61.61,0,0,0,5.36,11.25Z"/><path d="M6.2,19.35a14.4,14.4,0,0,1-.1-6.25c.43.41,1,.69,1.09,1.35a1.78,1.78,0,0,0,.12.5c.1.2.28.23.37,0,.18-.49.31-1,.48-1.5s.34-.9.5-1.32c.63.51,1.19.92,1.69,1.39a1.8,1.8,0,0,1,.44.81c.09.34.06.71.13,1.06a2.42,2.42,0,0,0,.28.55l.27-.83h.15v4.1l-1.39-.1-.08.15c.16.11.32.31.49.32a2,2,0,0,0,.67-.2c.13.22.33.54.48.87s.1.53-.21.61a7,7,0,0,1-1.18.18c-.08,0-.21-.12-.24-.22a5.32,5.32,0,0,1-.48-2.49,3.11,3.11,0,0,0-.28-1.05A5.25,5.25,0,0,1,9.08,15,4,4,0,0,0,9,14H8.82c-.08.54-.16,1.09-.25,1.63s-.2,1.06-.29,1.59c-.16.87-.31,1.75-.48,2.62a.79.79,0,0,1-.67.72A7.91,7.91,0,0,0,6,21a.58.58,0,0,1-.82-.28c-.19-.38,0-.6.31-.8a9.19,9.19,0,0,0,.73-.56c.35.33.79.28,1.18-.25Z"/><path d="M7.59,5.58c.14.8.32,1.5.38,2.21a5.11,5.11,0,0,0,1.17,2.94,2.07,2.07,0,0,1,.23.5c-.79.36-1,1.14-1.46,1.85-.22-.25-.42-.45-.6-.68S7.15,12,7,12c-.66-.06-.88-.73-1.4-1-.1,0-.17-.27-.18-.41,0-.47,0-.93,0-1.4A3.65,3.65,0,0,1,6.75,5.93,3.82,3.82,0,0,1,7.59,5.58Z"/><path d="M5.36,11.25a.61.61,0,0,1,.77.5.38.38,0,0,0,.08.16,14.9,14.9,0,0,0,1.14,1.16c.56.47.6.54.25,1.2-.33-.39-.65-.81-1-1.18a7.54,7.54,0,0,0-1-.77C5.09,12,5.16,11.65,5.36,11.25Z"/><path d="M11.84,13.61l.32-.16.11.08L11.1,15.16a3.7,3.7,0,0,1,0-.93c.05-.18.27-.31.43-.45a2,2,0,0,1,.31-.19Z"/><path d="M13.68,10.76c0,.89-.68,1.38-1.18,2,.12-.82.77-1.33,1.18-2Z"/><path d="M6,12.59c-.78-.42-.9-1.25-1.19-2,.66.49.81,1.3,1.19,2Z"/><path class="cls-2" d="M6.2,19.35l1.17-.25c-.39.53-.83.59-1.18.25Z"/><path d="M6.76,8.07l.83-2.42.3,0,.34,1,.63,1.3,1.23,1.62s.65,1.4.65,1.52a9.2,9.2,0,0,1-.6,1.11l-.94.13-1.33-1Z"/><path d="M11.86,13.59h0Z"/><path d="M13.68,10.76l-.53-.56c-.12-.4-.23-.8-.35-1.2a8.13,8.13,0,0,0-.52-1.57,5.5,5.5,0,0,0-2.06-1.84h-.11c-.3.86-1.14.66-1.71,1a2.91,2.91,0,0,1,.68-.43,2.49,2.49,0,0,0,.5-.24l.33-.28-.26,0h0a.84.84,0,0,1-.4.14c-.36.07-.73.11-1.1.17l-.22-.33A12.26,12.26,0,0,1,8.2,7.52a4.76,4.76,0,0,0,1.16,3,.73.73,0,0,1,0,1.05c-.45.3-.47.36-.11.77a3.13,3.13,0,0,0,.41.3L11,13.79l.8-.2c.15-.22.39-.44.42-.68A3.67,3.67,0,0,1,13,11.21c.18-.25.35-.47.68-.45ZM12,11.67l-.11-.07c.25-.44.48-.89.77-1.31.06-.09.3-.07.46-.1Z"/><path class="cls-2" d="M7.81,5.62S8.95,7,8.95,7.52s1.13-1.92,1.25-1.93H9.92Z"/><rect x="6.04" y="2.66" width="6.21" height="0.28" rx="0.12" ry="0.12"/><path d="M6.77,16.24c1.66,0,2.17.51,2.77.51s2.13-.44,2.67-.44a1,1,0,0,1,.66.43l.39-6.32-.85-2.2-7,1-.32,3.55L5,14.62l0,2.13H5A3.5,3.5,0,0,1,6.77,16.24Z"/></g></g></svg>