<svg xmlns="http://www.w3.org/2000/svg" viewBox="0 0 145.89 27.92"><defs><style>.cls-1{font-size:23px;font-family:PoplarStd, PoplarStd;letter-spacing:0.07em;}.cls-2{letter-spacing:0.07em;}.cls-3{letter-spacing:0.07em;}.cls-4{letter-spacing:0.08em;}.cls-5,.cls-6{fill:#fff;}.cls-5{stroke:#000;stroke-miterlimit:10;stroke-width:0.18px;}</style></defs><title>Recurso 5</title><g id="Capa_2" data-name="Capa 2"><g id="Capa_1-2" data-name="Capa 1"><text class="cls-1" transform="translate(0 22.17) scale(1.24 1)">CH<tspan class="cls-2" x="31.78" y="0">A</tspan><tspan class="cls-3" x="47.49" y="0">M</tspan><tspan class="cls-4" x="67.48" y="0">ÁN</tspan></text><path d="M131.68,11.6l.42-1.72a27.5,27.5,0,0,1,.76-3.05c.16-.13-.41-.82,2.62-.85s4,.07,4.24.36a10.1,10.1,0,0,1,.61,3.26C140.32,10.35,131.68,11.6,131.68,11.6Z"/><rect x="134.76" y="1.82" width="3.13" height="2.07" rx="0.9" ry="0.9"/><path d="M136.05,25.5c-5.42,0-9.84-5.72-9.84-12.75S130.63,0,136.05,0s9.84,5.72,9.84,12.75S141.48,25.5,136.05,25.5Zm0-24.66c-5,0-9,5.34-9,11.91s4,11.91,9,11.91,9-5.34,9-11.91S141,.84,136.05.84Z"/><path d="M136.77,10,134,7.26l.76-1.14,0,0a2.71,2.71,0,0,0,.82-.44c0-.11.08-.35,1.33-.29l1,0-.84.22a3.42,3.42,0,0,0,.48.46,1.24,1.24,0,0,1,0,1.76Zm-2.32-2.77,2.22,2.22.76-1.74v0s.64-.81,0-1.34a2.25,2.25,0,0,1-.62-.66,3,3,0,0,0-.86.07c-.06.19-.38.4-1,.63ZM136,5.7h0Z"/><path d="M138,4.26a.19.19,0,0,1-.07-.14,3.52,3.52,0,0,1,.05-.5.15.15,0,0,1,.05-.08c0-.09.06-.27-.2-.52s-1.25,0-1.48,0A10.47,10.47,0,0,0,134.74,3c-.2.12-.26,1.19-.26,1.19a.51.51,0,0,0-.34.64,2.16,2.16,0,0,0,0,.27c.11.43.31.57.76.54a.2.2,0,0,1,.12.06l.49.49a1.76,1.76,0,0,0,1,.22.13.13,0,0,1,0-.08q.37-.3.76-.58a.35.35,0,0,1,.22-.06.51.51,0,0,0,.57-.33,1.67,1.67,0,0,0,.11-.31C138.28,4.74,138.31,4.46,138,4.26Z"/><path d="M135,4.7h0c0,.19.06.39.11.57s.34.46.54.66a.88.88,0,0,0,.54.22,1,1,0,0,0,.94-.36,1.93,1.93,0,0,0,.18-.18.63.63,0,0,0,.13-.25c.08-.54.14-1.09.21-1.63a.43.43,0,0,0-.14-.45c-.15-.11-.27,0-.39,0a1.48,1.48,0,0,1-1,.18,5.4,5.4,0,0,1-.53-.18.4.4,0,0,0-.59.41C134.94,4.06,135,4.38,135,4.7Z"/><path d="M134.88,4.29c0-.17,0-.32,0-.46-.07-.49.26-.77.72-.57a1.62,1.62,0,0,0,1.51,0,.39.39,0,0,1,.6.41c0,.15-.05.3-.07.46a2.28,2.28,0,0,0,0,.26h.06a.65.65,0,0,0,.1-.19c0-.25.08-.51.1-.76a.34.34,0,0,0-.08-.21c-.16-.21-.31-.24-.67-.07a1.83,1.83,0,0,1-1.2.06,9.86,9.86,0,0,0-1-.12s-.12,0-.13.05a4.19,4.19,0,0,0-.18.76A.34.34,0,0,0,134.88,4.29Z"/><path d="M134.89,4.75a1.32,1.32,0,0,1,0-.13.25.25,0,0,0-.22-.29c-.22,0-.35,0-.38.22a.93.93,0,0,0,.19.8.67.67,0,0,0,.33.15s.14-.11.13-.13,0-.35-.28-.38c.19-.09.1-.18,0-.26s-.2-.08-.32,0c0-.08.1-.19.12-.18A3,3,0,0,1,134.89,4.75Z"/><path d="M137.77,4.93c-.24,0-.27,0-.29.32,0,.11,0,.25.12.28a.29.29,0,0,0,.34-.15,1.06,1.06,0,0,0,.16-.74.44.44,0,0,0-.22-.27c-.14-.05-.22.07-.28.21.27-.09.28-.08.36.05a.24.24,0,0,0-.35.15Z"/><path class="cls-5" d="M135,4.7c0-.32,0-.64-.07-1a.4.4,0,0,1,.59-.41,5.4,5.4,0,0,0,.53.18,1.48,1.48,0,0,0,1-.18c.12-.06.25-.16.39,0a.43.43,0,0,1,.14.45c-.08.54-.13,1.09-.21,1.63a.63.63,0,0,1-.13.25,1.93,1.93,0,0,1-.18.18,1,1,0,0,1-.94.36.88.88,0,0,1-.54-.22c-.2-.21-.46-.37-.54-.66s-.07-.38-.11-.57Zm.52.59a3.46,3.46,0,0,0,.33.48.56.56,0,0,0,.34.17.67.67,0,0,0,.64-.73c0-.1,0-.17-.19-.13s-.58.11-.87.16Zm.58-1.17H136a5.75,5.75,0,0,0-.1.6c0,.08,0,.22.1.25a.35.35,0,0,0,.44-.1h-.12c-.34.08-.38,0-.32-.3C136,4.42,136.06,4.27,136.09,4.12Zm-1-.05.54-.24A.46.46,0,0,0,135.13,4.07Zm1.74-.29.45.24C137.29,3.84,137.17,3.76,136.87,3.78Z"/><path d="M136.31,6.23l-.19,0a.92.92,0,0,1-.56-.23l-.15-.14a1.18,1.18,0,0,1-.4-.54,3.43,3.43,0,0,1-.08-.4l0-.18a.05.05,0,0,1,0,0l0,0h0l0-.25c0-.22,0-.44,0-.67a.47.47,0,0,1,.17-.43.51.51,0,0,1,.49,0l.11,0a3.9,3.9,0,0,0,.41.14,1.45,1.45,0,0,0,1-.17l.06,0a.33.33,0,0,1,.39,0,.49.49,0,0,1,.16.5c0,.26-.07.53-.1.79s-.07.56-.11.84a.67.67,0,0,1-.13.27.72.72,0,0,1-.11.12l-.07.06A1.06,1.06,0,0,1,136.31,6.23ZM135,4.75l0,.13a3.37,3.37,0,0,0,.08.39,1.09,1.09,0,0,0,.37.49l.16.15a.83.83,0,0,0,.51.2.93.93,0,0,0,.89-.35l.08-.07.1-.1a.6.6,0,0,0,.12-.23c0-.28.07-.56.11-.84s.07-.53.1-.79a.38.38,0,0,0-.12-.4c-.09-.07-.17,0-.28,0l-.06,0a1.53,1.53,0,0,1-1,.18,4,4,0,0,1-.42-.14l-.11,0a.4.4,0,0,0-.39,0,.37.37,0,0,0-.13.34c0,.22,0,.44,0,.66l0,.29A.05.05,0,0,1,135,4.75ZM136.2,6h0a.61.61,0,0,1-.37-.19,1.84,1.84,0,0,1-.23-.32l-.1-.17a.05.05,0,0,1,0-.08l.25,0,.25,0c.2,0,.41-.07.61-.12a.21.21,0,0,1,.18,0,.22.22,0,0,1,.08.16.71.71,0,0,1-.2.56A.65.65,0,0,1,136.2,6Zm-.6-.67.06.1a1.74,1.74,0,0,0,.21.3.51.51,0,0,0,.3.15.54.54,0,0,0,.41-.19.61.61,0,0,0,.17-.48s0-.08,0-.09a.13.13,0,0,0-.09,0c-.2.05-.41.09-.62.12l-.25,0Zm.58-.28A.52.52,0,0,1,136,5c-.09,0-.15-.2-.14-.3a3.49,3.49,0,0,1,.07-.43l0-.17a.05.05,0,0,1,.06,0h.08l0,0a.05.05,0,0,1,0,0l0,.14-.05.3c0,.07,0,.22,0,.26s.19,0,.26,0h.13a.05.05,0,0,1,0,0,.05.05,0,0,1,0,.06A.4.4,0,0,1,136.18,5Zm.06-.11h0Zm-1.11-.81,0,0a.05.05,0,0,1,0-.06.51.51,0,0,1,.59-.26.05.05,0,0,1,0,.1l-.54.24Zm.29-.24-.07,0Zm1.91.19h0l-.45-.24a.05.05,0,0,1,0-.1c.32,0,.47.06.51.28a.05.05,0,0,1,0,.05Zm-.23-.23.12.07A.22.22,0,0,0,137.09,3.84Z"/><path d="M134.88,4.29a.34.34,0,0,1-.29-.4,4.19,4.19,0,0,1,.18-.76s.09-.06.13-.05a9.86,9.86,0,0,1,1,.12,1.83,1.83,0,0,0,1.2-.06c.35-.17.51-.14.67.07a.34.34,0,0,1,.08.21c0,.26-.06.51-.1.76a.65.65,0,0,1-.1.19h-.06a2.28,2.28,0,0,1,0-.26c0-.15.06-.3.07-.46a.39.39,0,0,0-.6-.41,1.62,1.62,0,0,1-1.51,0c-.45-.2-.79.08-.72.57C134.86,4,134.87,4.12,134.88,4.29Z"/><path class="cls-6" d="M134.89,4.75a3,3,0,0,0-.37-.2s-.09.1-.12.18c.12-.09.22-.15.32,0s.15.16,0,.26c.26,0,.22.24.28.38s-.1.14-.13.13a.67.67,0,0,1-.33-.15.93.93,0,0,1-.19-.8c0-.18.17-.26.38-.22a.25.25,0,0,1,.22.29A1.32,1.32,0,0,0,134.89,4.75Z"/><path d="M134.82,5.54h0a.73.73,0,0,1-.36-.17,1,1,0,0,1-.21-.84.31.31,0,0,1,.12-.21.41.41,0,0,1,.32,0,.3.3,0,0,1,.26.35,1,1,0,0,0,0,.11v0a.05.05,0,0,1,0,0h-.05l-.06,0a.16.16,0,0,1,0,.13.15.15,0,0,1,0,.07.35.35,0,0,1,.18.27.66.66,0,0,0,0,.1s0,.07,0,.11S134.88,5.54,134.82,5.54Zm0-.1Zm-.25-1.07a.25.25,0,0,0-.14,0,.21.21,0,0,0-.08.14.88.88,0,0,0,.18.75.63.63,0,0,0,.3.13l.08-.07a.89.89,0,0,1,0-.1c0-.11,0-.21-.2-.22a.05.05,0,0,1,0-.1c.07,0,.08-.06.08-.07s0-.05,0-.08l0,0a.13.13,0,0,0-.08-.06s-.1,0-.17.08a.05.05,0,0,1-.08-.06c0-.05.09-.18.14-.21h0a2,2,0,0,1,.29.15h0s0,0,0,0a.2.2,0,0,0-.17-.24Z"/><path class="cls-6" d="M137.77,4.93l-.17-.14a.24.24,0,0,1,.35-.15c-.07-.14-.09-.14-.36-.05.07-.14.15-.26.28-.21a.44.44,0,0,1,.22.27,1.06,1.06,0,0,1-.16.74.29.29,0,0,1-.34.15c-.16,0-.13-.17-.12-.28C137.5,5,137.53,4.93,137.77,4.93Z"/><path d="M137.68,5.6h-.1c-.18,0-.17-.2-.16-.31v0c0-.24,0-.33.21-.36l-.07-.06a.05.05,0,0,1,0-.06.33.33,0,0,1,.1-.15h0a.05.05,0,0,1-.06-.07c0-.09.15-.31.35-.23a.49.49,0,0,1,.25.31,1.12,1.12,0,0,1-.16.77A.34.34,0,0,1,137.68,5.6Zm.05-.61c-.17,0-.19,0-.2.27v0c0,.12,0,.17.08.19a.24.24,0,0,0,.29-.12,1,1,0,0,0,.16-.7.39.39,0,0,0-.19-.23c-.06,0-.1,0-.15.07.16,0,.22,0,.29.12a.05.05,0,0,1-.06.07c-.14,0-.22,0-.27.09l.14.12a.05.05,0,0,1,0,.06.06.06,0,0,1,0,0Z"/><path d="M135.51,5.29l.25,0c.29-.05.58-.09.87-.16s.17,0,.19.13a.67.67,0,0,1-.64.73.56.56,0,0,1-.34-.17A3.46,3.46,0,0,1,135.51,5.29Zm.57,0,.55,0s.07-.06.1-.09l0,0-.61.15-.37,0v.08s.1,0,.14,0A1.79,1.79,0,0,0,136.08,5.32Zm.59.08a1,1,0,0,0-.71.09c-.13.07-.13.16,0,.26a.35.35,0,0,0,.39.08A.46.46,0,0,0,136.66,5.4Z"/><path d="M136.09,4.12c0,.15,0,.29-.07.44-.06.33,0,.38.32.3h.12A.35.35,0,0,1,136,5c-.06,0-.11-.16-.1-.25a5.75,5.75,0,0,1,.1-.6Z"/><path d="M135.13,4.07a.46.46,0,0,1,.54-.24Z"/><path d="M136.87,3.78c.3,0,.42.06.45.24Z"/><path class="cls-6" d="M136.66,5.4a.46.46,0,0,1-.35.43.35.35,0,0,1-.39-.08c-.1-.1-.1-.19,0-.26A1,1,0,0,1,136.66,5.4Z"/><path class="cls-6" d="M136.08,5.32l.61-.15,0,0s-.06.09-.1.09l-.55,0Z"/><path class="cls-6" d="M136.08,5.32a1.79,1.79,0,0,1-.24.13s-.1,0-.14,0V5.36l.37,0Z"/><path class="cls-6" d="M133.12,21.54h0a10.23,10.23,0,0,1-.82.62c-.35.22-.55.46-.34.89a.64.64,0,0,0,.92.31,8.81,8.81,0,0,1,1.28-.5.88.88,0,0,0,.74-.81c.19-1,.36-1.95.54-2.92.11-.59.23-1.18.33-1.77s.19-1.21.28-1.82h.16a4.45,4.45,0,0,1,.13,1.16,5.85,5.85,0,0,0,.34,2.52A3.46,3.46,0,0,1,137,20.4a5.92,5.92,0,0,0,.54,2.77c0,.1.19.25.27.24a7.74,7.74,0,0,0,1.31-.2c.34-.09.36-.41.23-.68s-.39-.72-.54-1a2.24,2.24,0,0,1-.75.23c-.19,0-.36-.23-.54-.36l.09-.17,1.54.11V16.82H139l-.3.92a2.7,2.7,0,0,1-.31-.61c-.07-.39,0-.8-.14-1.17a2,2,0,0,0-.49-.9c-.56-.53-1.19-1-1.88-1.54-.17.46-.38,1-.55,1.46s-.33,1.12-.53,1.67c-.1.26-.3.23-.41,0a2,2,0,0,1-.13-.55c-.13-.73-.73-1.05-1.21-1.51A16,16,0,0,0,133.12,21.54Z"/><path class="cls-6" d="M134.66,6.28a4.27,4.27,0,0,0-.93.38,4,4,0,0,0-1.47,3.62c0,.52,0,1,0,1.55,0,.16.08.4.2.46.58.28.82,1,1.55,1.08.11,0,.18.31.3.45s.42.48.66.75c.54-.79.75-1.65,1.62-2a2.27,2.27,0,0,0-.25-.55,5.62,5.62,0,0,1-1.3-3.25C135,7.94,134.82,7.17,134.66,6.28Z"/><path class="cls-6" d="M132.18,12.52c-.22.44-.3.85.2,1.19a8.39,8.39,0,0,1,1.16.86c.42.4.77.88,1.14,1.31.38-.73.34-.81-.28-1.33a16.58,16.58,0,0,1-1.26-1.29.42.42,0,0,1-.09-.18A.68.68,0,0,0,132.18,12.52Z"/><path d="M133.12,21.54a16,16,0,0,1-.11-7c.48.46,1.08.77,1.21,1.51a2,2,0,0,0,.13.55c.11.22.31.26.41,0,.2-.55.34-1.12.53-1.67s.38-1,.55-1.46c.7.56,1.32,1,1.88,1.54a2,2,0,0,1,.49.9c.1.38.07.79.14,1.17a2.7,2.7,0,0,0,.31.61l.3-.92h.17v4.57l-1.54-.11-.09.17c.18.13.35.34.54.36a2.24,2.24,0,0,0,.75-.23c.14.25.37.6.54,1s.11.59-.23.68a7.74,7.74,0,0,1-1.31.2c-.09,0-.23-.14-.27-.24A5.92,5.92,0,0,1,137,20.4a3.46,3.46,0,0,0-.32-1.17,5.85,5.85,0,0,1-.34-2.52,4.45,4.45,0,0,0-.13-1.16H136c-.09.61-.17,1.21-.28,1.82s-.22,1.18-.33,1.77c-.18,1-.35,1.95-.54,2.92a.88.88,0,0,1-.74.81,8.81,8.81,0,0,0-1.28.5.64.64,0,0,1-.92-.31c-.21-.42,0-.67.34-.89a10.23,10.23,0,0,0,.82-.62c.39.37.88.31,1.32-.28Z"/><path d="M134.66,6.21c.16.89.35,1.67.42,2.46a5.69,5.69,0,0,0,1.3,3.28,2.3,2.3,0,0,1,.25.56c-.87.4-1.08,1.26-1.62,2.06-.24-.27-.46-.51-.66-.75s-.19-.45-.3-.46c-.73-.07-1-.81-1.55-1.09-.11-.06-.18-.3-.2-.46,0-.52,0-1,0-1.56a4.06,4.06,0,0,1,1.47-3.65A4.25,4.25,0,0,1,134.66,6.21Z"/><path d="M132.18,12.52a.68.68,0,0,1,.86.55.42.42,0,0,0,.09.18,16.58,16.58,0,0,0,1.26,1.29c.62.52.67.6.28,1.33-.37-.43-.72-.91-1.14-1.31a8.39,8.39,0,0,0-1.16-.86C131.88,13.37,132,13,132.18,12.52Z"/><path d="M139.39,15.14l.36-.18.12.09-1.3,1.81a4.12,4.12,0,0,1,0-1c.06-.2.3-.35.48-.5a2.19,2.19,0,0,1,.34-.21Z"/><path d="M141.44,12c0,1-.76,1.53-1.31,2.2.14-.91.85-1.48,1.31-2.2Z"/><path d="M132.91,14c-.87-.46-1-1.39-1.33-2.19.74.55.9,1.45,1.33,2.19Z"/><path class="cls-6" d="M133.12,21.54l1.3-.28c-.44.59-.93.65-1.32.28Z"/><path d="M133.74,9l.92-2.7.33,0,.38,1.12.7,1.45,1.37,1.8s.72,1.56.72,1.69a10.24,10.24,0,0,1-.67,1.23l-1,.15L135,12.58Z"/><path d="M139.41,15.12h0v0Z"/><path d="M141.44,12l-.59-.63c-.13-.44-.25-.89-.39-1.33a9,9,0,0,0-.58-1.74,6.12,6.12,0,0,0-2.29-2.05h-.12c-.33,1-1.27.74-1.9,1.08a3.24,3.24,0,0,1,.75-.48,2.77,2.77,0,0,0,.55-.26l.37-.32-.29,0h0a.94.94,0,0,1-.45.15c-.4.08-.81.13-1.23.19L135,6.25a13.64,13.64,0,0,1,.35,2.13,5.3,5.3,0,0,0,1.29,3.3.81.81,0,0,1-.06,1.17c-.5.33-.52.4-.12.85a3.48,3.48,0,0,0,.45.33l1.61,1.32.89-.22c.17-.25.43-.49.47-.75a4.09,4.09,0,0,1,.82-1.9c.2-.28.38-.52.76-.5Zm-1.86,1-.12-.07c.28-.49.54-1,.85-1.46.07-.1.33-.08.52-.11Z"/><path class="cls-6" d="M134.91,6.25s1.26,1.58,1.26,2.12,1.26-2.13,1.39-2.14h-.31Z"/><rect x="132.94" y="2.96" width="6.92" height="0.31" rx="0.14" ry="0.14"/><path d="M133.75,18.07c1.85,0,2.41.56,3.09.56s2.37-.49,3-.49a1.1,1.1,0,0,1,.73.48l.43-7L140,9.15l-7.77,1.09-.36,4-.11,2.07,0,2.37h0A3.9,3.9,0,0,1,133.75,18.07Z"/></g></g></svg>