<svg xmlns="http://www.w3.org/2000/svg" viewBox="0 0 119.75 21.76"><defs><style>.cls-1,.cls-2{fill:#fff;}.cls-1{stroke:#000;stroke-miterlimit:10;stroke-width:0.15px;}</style></defs><title>Recurso 2</title><g id="Capa_2" data-name="Capa 2"><g id="Capa_1-2" data-name="Capa 1"><path d="M.43,15.5a6.05,6.05,0,0,0,3.06.86c1.75,0,2.77-.92,2.77-2.26s-.71-1.94-2.49-2.63C1.61,10.71.27,9.59.27,7.73.27,5.67,2,4.14,4.55,4.14a6,6,0,0,1,2.92.65L7,6.18a5.27,5.27,0,0,0-2.51-.63C2.69,5.55,2,6.63,2,7.53c0,1.24.8,1.84,2.63,2.55C6.87,10.95,8,12,8,14S6.5,17.77,3.38,17.77A6.84,6.84,0,0,1,0,16.93Z"/><path d="M14,13.42l-1.37,4.16H10.81L15.31,4.35h2.06l4.51,13.23H20.06l-1.41-4.16Zm4.34-1.33L17,8.28c-.29-.86-.49-1.65-.69-2.41h0c-.2.79-.41,1.59-.67,2.39l-1.29,3.83Z"/><path d="M25.3,4.35H27V16.14h5.65v1.43H25.3Z"/><path d="M38.17,13.42l-1.37,4.16H35L39.52,4.35h2.06L46.1,17.58H44.27l-1.41-4.16Zm4.34-1.33L41.21,8.28c-.29-.86-.49-1.65-.69-2.41h0c-.2.79-.41,1.59-.67,2.39l-1.29,3.83Z"/><path d="M49.28,15.5a6.05,6.05,0,0,0,3.06.86c1.75,0,2.77-.92,2.77-2.26s-.71-1.94-2.49-2.63c-2.16-.77-3.49-1.88-3.49-3.75,0-2.06,1.71-3.59,4.28-3.59a6,6,0,0,1,2.92.65l-.47,1.39a5.27,5.27,0,0,0-2.51-.63c-1.81,0-2.49,1.08-2.49,2,0,1.24.8,1.84,2.63,2.55,2.24.86,3.38,1.94,3.38,3.89s-1.51,3.81-4.63,3.81a6.84,6.84,0,0,1-3.37-.84Z"/><path d="M62.8,13.42l-1.37,4.16H59.66L64.15,4.35h2.06l4.51,13.23H68.9l-1.41-4.16Zm4.34-1.33L65.84,8.28c-.29-.86-.49-1.65-.69-2.41h0c-.2.79-.41,1.59-.67,2.39l-1.29,3.83Z"/><path d="M74.14,4.35h1.71v6.38h.06c.35-.51.71-1,1-1.41l4-5h2.12L78.32,10l5.16,7.61h-2l-4.36-6.5-1.26,1.45v5H74.14Z"/><path d="M88.58,13.42l-1.37,4.16H85.44L89.94,4.35H92l4.51,13.23H94.68l-1.41-4.16Zm4.34-1.33L91.62,8.28c-.29-.86-.49-1.65-.69-2.41h0c-.2.79-.41,1.59-.67,2.39l-1.29,3.83Z"/><path d="M107.62,9.89,108,8.43a23.46,23.46,0,0,1,.65-2.6c.13-.11-.35-.7,2.23-.72s3.37.06,3.61.31A8.62,8.62,0,0,1,115,8.19C115,8.83,107.62,9.89,107.62,9.89Z"/><rect x="110.25" y="1.56" width="2.67" height="1.76" rx="0.77" ry="0.77"/><path d="M111.36,21.76c-4.63,0-8.39-4.88-8.39-10.88S106.73,0,111.36,0s8.39,4.88,8.39,10.88S116,21.76,111.36,21.76Zm0-21c-4.23,0-7.68,4.56-7.68,10.16S107.12,21,111.36,21,119,16.48,119,10.88,115.59.71,111.36.71Z"/><path d="M112,8.52,109.65,6.2l.65-1,0,0a2.31,2.31,0,0,0,.7-.38c0-.09.07-.3,1.13-.25l.87,0-.71.19a2.92,2.92,0,0,0,.41.39,1.06,1.06,0,0,1,0,1.5Zm-2-2.36,1.89,1.89.65-1.49h0s.55-.69,0-1.14a1.92,1.92,0,0,1-.53-.57,2.56,2.56,0,0,0-.73.06c-.05.16-.33.34-.82.54Zm1.31-1.3h0Z"/><path d="M113,3.63a.16.16,0,0,1-.06-.12,3,3,0,0,1,0-.42.13.13,0,0,1,0-.07c0-.08,0-.23-.17-.44s-1.07,0-1.26,0a8.94,8.94,0,0,0-1.4-.06c-.17.11-.22,1-.22,1a.44.44,0,0,0-.29.54,1.84,1.84,0,0,0,0,.23c.09.37.26.48.65.46a.17.17,0,0,1,.11.05l.42.42a1.5,1.5,0,0,0,.84.19.11.11,0,0,1,0-.07q.32-.26.65-.49a.3.3,0,0,1,.19-.05.44.44,0,0,0,.48-.29,1.42,1.42,0,0,0,.09-.26C113.26,4,113.28,3.8,113,3.63Z"/><path d="M110.45,4h0c0,.16,0,.33.09.49s.29.39.46.57a.75.75,0,0,0,.46.19.84.84,0,0,0,.8-.31,1.64,1.64,0,0,0,.15-.15.53.53,0,0,0,.11-.21c.07-.46.12-.93.18-1.39a.37.37,0,0,0-.12-.38c-.12-.1-.23,0-.34,0a1.27,1.27,0,0,1-.86.15,4.6,4.6,0,0,1-.45-.16.34.34,0,0,0-.5.35C110.41,3.46,110.44,3.74,110.45,4Z"/><path d="M110.36,3.66c0-.15,0-.27,0-.39-.06-.42.23-.65.61-.48a1.38,1.38,0,0,0,1.29,0,.34.34,0,0,1,.51.35c0,.13,0,.26-.06.39a2,2,0,0,0,0,.22h.05a.55.55,0,0,0,.09-.16c0-.22.07-.43.09-.65a.29.29,0,0,0-.07-.18c-.14-.18-.27-.2-.57-.06a1.57,1.57,0,0,1-1,.05,8.41,8.41,0,0,0-.86-.1s-.1,0-.11,0a3.57,3.57,0,0,0-.15.65A.29.29,0,0,0,110.36,3.66Z"/><path d="M110.36,4.06a1.12,1.12,0,0,1,0-.11.21.21,0,0,0-.19-.25c-.18,0-.3,0-.33.18a.79.79,0,0,0,.17.68.57.57,0,0,0,.29.13s.12-.09.11-.11,0-.29-.24-.32c.17-.08.08-.15,0-.22S110,4,109.94,4s.09-.16.11-.15A2.56,2.56,0,0,1,110.36,4.06Z"/><path d="M112.82,4.21c-.2,0-.23,0-.25.27s0,.21.1.24a.25.25,0,0,0,.29-.13.91.91,0,0,0,.14-.63.37.37,0,0,0-.19-.23c-.12,0-.19.06-.24.18.23-.07.24-.07.3,0a.21.21,0,0,0-.3.13Z"/><path class="cls-1" d="M110.45,4c0-.27,0-.55-.06-.82a.34.34,0,0,1,.5-.35,4.6,4.6,0,0,0,.45.16,1.27,1.27,0,0,0,.86-.15c.11,0,.21-.13.34,0a.37.37,0,0,1,.12.38c-.06.46-.12.93-.18,1.39a.53.53,0,0,1-.11.21,1.64,1.64,0,0,1-.15.15.84.84,0,0,1-.8.31.75.75,0,0,1-.46-.19c-.17-.18-.39-.31-.46-.57s-.06-.33-.09-.49Zm.44.5a3,3,0,0,0,.28.41.48.48,0,0,0,.29.15.58.58,0,0,0,.54-.62c0-.09,0-.15-.16-.11s-.49.1-.74.14Zm.49-1h-.07a4.91,4.91,0,0,0-.09.51c0,.07,0,.19.09.21a.3.3,0,0,0,.38-.09h-.1c-.29.07-.32,0-.27-.26C111.35,3.77,111.37,3.64,111.39,3.52Zm-.82,0,.46-.2A.39.39,0,0,0,110.57,3.47Zm1.49-.25.39.2C112.41,3.28,112.31,3.21,112.05,3.23Z"/><path d="M111.58,5.31h-.16a.79.79,0,0,1-.48-.2L110.8,5a1,1,0,0,1-.34-.46,2.93,2.93,0,0,1-.07-.34l0-.15a0,0,0,0,1,0,0l0,0h0l0-.21c0-.19,0-.38,0-.57a.4.4,0,0,1,.15-.36.44.44,0,0,1,.41,0l.1,0,.35.12a1.23,1.23,0,0,0,.83-.15l0,0a.28.28,0,0,1,.33,0,.42.42,0,0,1,.14.42c0,.23-.06.45-.09.68s-.06.48-.09.72a.58.58,0,0,1-.11.23.61.61,0,0,1-.1.1l-.06.06A.91.91,0,0,1,111.58,5.31Zm-1.11-1.26,0,.11a2.87,2.87,0,0,0,.07.33.93.93,0,0,0,.32.42L111,5a.71.71,0,0,0,.43.17.79.79,0,0,0,.76-.29l.06-.06.08-.09a.51.51,0,0,0,.1-.19c0-.24.06-.48.09-.71s.06-.45.09-.68a.33.33,0,0,0-.11-.34c-.08-.06-.14,0-.24,0l-.05,0a1.31,1.31,0,0,1-.89.15L111,2.92l-.1,0a.34.34,0,0,0-.33,0,.32.32,0,0,0-.11.29c0,.19,0,.38,0,.57l0,.25A0,0,0,0,1,110.46,4.05Zm1,1.06h0a.52.52,0,0,1-.32-.16,1.57,1.57,0,0,1-.19-.27l-.09-.14a0,0,0,0,1,0,0l0,0,.21,0,.22,0,.52-.1a.18.18,0,0,1,.15,0,.19.19,0,0,1,.07.14.61.61,0,0,1-.17.48A.56.56,0,0,1,111.48,5.11ZM111,4.55l.05.09a1.49,1.49,0,0,0,.18.26.44.44,0,0,0,.26.13.46.46,0,0,0,.35-.16.52.52,0,0,0,.15-.41s0-.07,0-.08h-.08l-.53.1-.22,0Zm.5-.24a.44.44,0,0,1-.16,0c-.08,0-.12-.17-.12-.25a3,3,0,0,1,.06-.37l0-.15a0,0,0,0,1,0,0h.07l0,0a0,0,0,0,1,0,0l0,.12,0,.26c0,.06,0,.19,0,.22s.17,0,.22,0h.11a0,0,0,0,1,0,0,0,0,0,0,1,0,0A.34.34,0,0,1,111.46,4.31Zm.05-.1h0Zm-.95-.69,0,0a0,0,0,0,1,0-.05.44.44,0,0,1,.51-.22,0,0,0,0,1,0,.08l-.46.2Zm.24-.2-.06,0Zm1.63.16h0l-.39-.2a0,0,0,0,1,0-.08c.27,0,.4.05.43.24a0,0,0,0,1,0,0Zm-.19-.2.11.06A.19.19,0,0,0,112.25,3.28Z"/><path d="M110.36,3.66a.29.29,0,0,1-.24-.34,3.57,3.57,0,0,1,.15-.65s.07,0,.11,0a8.41,8.41,0,0,1,.86.1,1.57,1.57,0,0,0,1-.05c.3-.14.43-.12.57.06a.29.29,0,0,1,.07.18c0,.22,0,.43-.09.65a.55.55,0,0,1-.09.16h-.05a2,2,0,0,1,0-.22c0-.13.05-.26.06-.39a.34.34,0,0,0-.51-.35,1.38,1.38,0,0,1-1.29,0c-.39-.17-.67.07-.61.48C110.34,3.39,110.35,3.51,110.36,3.66Z"/><path class="cls-2" d="M110.36,4.06a2.56,2.56,0,0,0-.32-.17S110,4,109.94,4s.19-.13.27,0,.13.14,0,.22c.22,0,.19.2.24.32s-.09.12-.11.11a.57.57,0,0,1-.29-.13.79.79,0,0,1-.17-.68c0-.16.14-.22.33-.18a.21.21,0,0,1,.19.25A1.12,1.12,0,0,0,110.36,4.06Z"/><path d="M110.31,4.73h0a.62.62,0,0,1-.31-.14.83.83,0,0,1-.18-.72.26.26,0,0,1,.1-.18.35.35,0,0,1,.27,0,.26.26,0,0,1,.22.3.84.84,0,0,0,0,.09v0a0,0,0,0,1,0,0h0l-.05,0a.14.14,0,0,1,0,.11.13.13,0,0,1,0,.06.3.3,0,0,1,.15.23.56.56,0,0,0,0,.09s0,.06,0,.09S110.35,4.73,110.31,4.73Zm0-.09Zm-.21-.91a.21.21,0,0,0-.12,0,.18.18,0,0,0-.07.12.75.75,0,0,0,.15.64.54.54,0,0,0,.25.11l.07-.06,0-.09c0-.1,0-.18-.17-.19a0,0,0,0,1,0-.08c.06,0,.07-.05.07-.06s0,0,0-.07l0,0a.11.11,0,0,0-.07-.06s-.09,0-.14.07A0,0,0,0,1,109.9,4s.07-.15.12-.18h0a1.74,1.74,0,0,1,.25.13h0v0a.17.17,0,0,0-.15-.2Z"/><path class="cls-2" d="M112.82,4.21l-.14-.12A.21.21,0,0,1,113,4c-.06-.12-.08-.12-.3,0,.06-.12.13-.22.24-.18a.37.37,0,0,1,.19.23.91.91,0,0,1-.14.63.25.25,0,0,1-.29.13c-.13,0-.11-.15-.1-.24S112.62,4.21,112.82,4.21Z"/><path d="M112.75,4.77h-.08c-.16,0-.15-.17-.14-.26v0c0-.2,0-.29.18-.31l-.06,0a0,0,0,0,1,0,0,.28.28,0,0,1,.09-.13h0a0,0,0,0,1-.05-.06c0-.08.13-.27.3-.2a.42.42,0,0,1,.22.26,1,1,0,0,1-.14.66A.29.29,0,0,1,112.75,4.77Zm0-.52c-.14,0-.16,0-.17.23v0c0,.1,0,.15.07.17a.2.2,0,0,0,.24-.11.87.87,0,0,0,.13-.6.33.33,0,0,0-.16-.2s-.09,0-.13.06c.14,0,.18,0,.25.1A0,0,0,0,1,113,4c-.12,0-.19,0-.23.07l.12.1a0,0,0,0,1,0,0,.05.05,0,0,1,0,0Z"/><path d="M110.89,4.51l.21,0c.25,0,.5-.08.74-.14s.15,0,.16.11a.58.58,0,0,1-.54.62.48.48,0,0,1-.29-.15A3,3,0,0,1,110.89,4.51Zm.48,0,.47,0s.06,0,.08-.08l0,0-.52.13-.32,0v.06s.09,0,.12,0A1.53,1.53,0,0,0,111.38,4.54Zm.5.07a.88.88,0,0,0-.61.08c-.11.06-.11.13,0,.22a.3.3,0,0,0,.33.07A.4.4,0,0,0,111.88,4.61Z"/><path d="M111.39,3.52c0,.12,0,.25-.06.37-.05.29,0,.32.27.26h.1a.3.3,0,0,1-.38.09c-.05,0-.09-.14-.09-.21a4.91,4.91,0,0,1,.09-.51Z"/><path d="M110.57,3.47a.39.39,0,0,1,.46-.2Z"/><path d="M112.05,3.23c.26,0,.36,0,.39.2Z"/><path class="cls-2" d="M111.88,4.61a.4.4,0,0,1-.3.37.3.3,0,0,1-.33-.07c-.08-.09-.09-.16,0-.22A.88.88,0,0,1,111.88,4.61Z"/><path class="cls-2" d="M111.38,4.54l.52-.13,0,0s-.05.07-.08.08l-.47,0Z"/><path class="cls-2" d="M111.38,4.54a1.53,1.53,0,0,1-.2.11s-.08,0-.12,0V4.57l.32,0Z"/><path class="cls-2" d="M108.85,18.38h0a8.73,8.73,0,0,1-.7.53c-.3.19-.47.39-.29.76a.55.55,0,0,0,.78.27,7.51,7.51,0,0,1,1.1-.43.75.75,0,0,0,.63-.69c.16-.83.31-1.66.46-2.49.09-.5.19-1,.28-1.51s.16-1,.24-1.55h.13a3.8,3.8,0,0,1,.11,1,5,5,0,0,0,.29,2.15,3,3,0,0,1,.27,1,5.05,5.05,0,0,0,.46,2.37c0,.09.16.21.23.21a6.61,6.61,0,0,0,1.12-.17c.29-.08.31-.35.2-.58s-.34-.61-.46-.82a1.91,1.91,0,0,1-.64.19c-.16,0-.31-.2-.46-.3l.08-.15,1.32.1v-3.9h-.14l-.26.79a2.3,2.3,0,0,1-.26-.52c-.06-.33,0-.68-.12-1a1.71,1.71,0,0,0-.42-.77c-.48-.45-1-.84-1.61-1.32-.15.39-.32.82-.47,1.25s-.28,1-.45,1.43c-.08.23-.26.19-.35,0a1.69,1.69,0,0,1-.11-.47c-.11-.63-.62-.9-1-1.29A13.67,13.67,0,0,0,108.85,18.38Z"/><path class="cls-2" d="M110.17,5.36a3.65,3.65,0,0,0-.79.32,3.42,3.42,0,0,0-1.25,3.09c0,.44,0,.88,0,1.32,0,.14.07.34.17.39.49.24.7.86,1.33.92.1,0,.16.26.26.39s.36.41.57.64c.46-.67.64-1.41,1.38-1.74a1.94,1.94,0,0,0-.22-.47,4.79,4.79,0,0,1-1.11-2.77C110.47,6.77,110.3,6.11,110.17,5.36Z"/><path class="cls-2" d="M108.05,10.68c-.19.38-.26.73.17,1a7.16,7.16,0,0,1,1,.73c.36.34.66.75,1,1.12.33-.62.29-.69-.24-1.14a14.15,14.15,0,0,1-1.08-1.1.36.36,0,0,1-.08-.16A.58.58,0,0,0,108.05,10.68Z"/><path d="M108.85,18.38a13.67,13.67,0,0,1-.1-5.94c.41.39.92.66,1,1.29a1.69,1.69,0,0,0,.11.47c.1.19.27.22.35,0,.17-.47.29-1,.45-1.43s.32-.86.47-1.25c.6.48,1.13.87,1.61,1.32a1.71,1.71,0,0,1,.42.77c.09.32.06.67.12,1a2.3,2.3,0,0,0,.26.52l.26-.79H114v3.9l-1.32-.1-.08.15c.15.11.3.29.46.3a1.91,1.91,0,0,0,.64-.19c.12.21.31.51.46.82s.09.5-.2.58a6.61,6.61,0,0,1-1.12.17c-.07,0-.2-.12-.23-.21a5.05,5.05,0,0,1-.46-2.37,3,3,0,0,0-.27-1,5,5,0,0,1-.29-2.15,3.8,3.8,0,0,0-.11-1h-.13c-.08.52-.15,1-.24,1.55s-.19,1-.28,1.51c-.15.83-.3,1.66-.46,2.49a.75.75,0,0,1-.63.69,7.51,7.51,0,0,0-1.1.43.55.55,0,0,1-.78-.27c-.18-.36,0-.57.29-.76a8.72,8.72,0,0,0,.7-.53c.33.31.75.26,1.12-.24Z"/><path d="M110.17,5.3c.13.76.3,1.42.36,2.1a4.85,4.85,0,0,0,1.11,2.8,2,2,0,0,1,.22.48c-.75.34-.92,1.08-1.38,1.76-.21-.23-.39-.43-.57-.64s-.16-.38-.26-.39c-.62-.06-.83-.69-1.33-.93-.1,0-.16-.25-.17-.39,0-.44,0-.89,0-1.33a3.47,3.47,0,0,1,1.25-3.11A3.63,3.63,0,0,1,110.17,5.3Z"/><path d="M108.05,10.68a.58.58,0,0,1,.73.47.36.36,0,0,0,.08.16,14.15,14.15,0,0,0,1.08,1.1c.53.45.57.51.24,1.14-.32-.37-.61-.77-1-1.12a7.16,7.16,0,0,0-1-.73C107.8,11.41,107.86,11.06,108.05,10.68Z"/><path d="M114.21,12.92l.3-.15.1.08-1.11,1.55a3.51,3.51,0,0,1,0-.88c.05-.17.26-.3.41-.43a1.86,1.86,0,0,1,.29-.18Z"/><path d="M116,10.21c0,.84-.65,1.31-1.12,1.88.12-.78.73-1.26,1.12-1.88Z"/><path d="M108.67,12c-.75-.4-.85-1.18-1.13-1.87.63.47.77,1.23,1.13,1.87Z"/><path class="cls-2" d="M108.85,18.38l1.11-.23c-.37.5-.79.56-1.12.24Z"/><path d="M109.38,7.66l.79-2.3.29,0,.33,1,.6,1.24,1.17,1.53s.62,1.33.62,1.44a8.74,8.74,0,0,1-.57,1.05l-.89.13-1.26-1Z"/><path d="M114.22,12.9h0Z"/><path d="M116,10.21l-.5-.53c-.11-.38-.21-.76-.33-1.14a7.72,7.72,0,0,0-.5-1.49,5.23,5.23,0,0,0-2-1.75h-.1c-.29.82-1.09.63-1.62.92a2.76,2.76,0,0,1,.64-.41,2.37,2.37,0,0,0,.47-.22l.32-.27-.25,0h0a.8.8,0,0,1-.38.13c-.34.06-.69.11-1,.16l-.21-.31a11.64,11.64,0,0,1,.3,1.81,4.52,4.52,0,0,0,1.1,2.81.69.69,0,0,1,0,1c-.43.28-.44.34-.11.73a3,3,0,0,0,.39.28l1.37,1.13.76-.19c.14-.21.37-.42.4-.64a3.49,3.49,0,0,1,.7-1.62c.17-.24.33-.44.65-.43Zm-1.59.86-.1-.06c.24-.42.46-.85.73-1.24.06-.09.28-.07.44-.09Z"/><path class="cls-2" d="M110.38,5.34s1.08,1.35,1.08,1.81,1.07-1.82,1.18-1.83h-.26Z"/><rect x="108.7" y="2.53" width="5.9" height="0.27" rx="0.12" ry="0.12"/><path d="M109.39,15.42a10.54,10.54,0,0,1,2.63.48c.58,0,2-.42,2.54-.42a.94.94,0,0,1,.63.41l.37-6-.8-2.09-6.63.93-.31,3.37-.1,1.77,0,2h0A3.33,3.33,0,0,1,109.39,15.42Z"/></g></g></svg>