<?xml version="1.0" encoding="iso-8859-1"?>
<!-- Generator: Adobe Illustrator 19.0.0, SVG Export Plug-In . SVG Version: 6.00 Build 0)  -->
<svg version="1.1" id="Layer_1" xmlns="http://www.w3.org/2000/svg" xmlns:xlink="http://www.w3.org/1999/xlink" x="0px" y="0px"
	 viewBox="0 0 511.999 511.999" style="enable-background:new 0 0 511.999 511.999;" xml:space="preserve">
<polyline style="fill:#EAC36E;" points="268.183,155.792 40.208,155.792 8.687,83.465 206.158,83.465 "/>
<g>
	<rect x="40.211" y="155.79" style="fill:#FCD577;" width="404.133" height="301.166"/>
	<polygon style="fill:#FCD577;" points="164.005,155.788 444.336,155.788 503.054,55.043 222.724,55.043 	"/>
</g>
<rect x="40.211" y="155.79" style="fill:#EAC36E;" width="123.795" height="301.166"/>
<path d="M510.827,50.652c-1.573-2.736-4.488-4.423-7.644-4.423h-87.129c-4.87,0-8.816,3.947-8.816,8.816s3.946,8.816,8.816,8.816
	h71.786l-48.441,83.113H179.476l48.441-83.113h156.567c4.87,0,8.816-3.947,8.816-8.816s-3.946-8.816-8.816-8.816H222.853
	c-3.136,0-6.037,1.667-7.616,4.376l-56.167,96.368H46.11L22.275,92.281h147.542c4.869,0,8.816-3.947,8.816-8.816
	c0-4.869-3.947-8.816-8.816-8.816H8.816c-2.973,0-5.745,1.499-7.375,3.986s-1.895,5.627-0.708,8.353l30.785,70.638v299.329
	c0,4.869,3.947,8.816,8.816,8.816h404.131c4.87,0,8.816-3.947,8.816-8.816V158.169L510.8,59.483
	C512.389,56.756,512.4,53.388,510.827,50.652z M435.65,448.139H172.95v-29.065c0-4.869-3.947-8.816-8.816-8.816
	s-8.816,3.947-8.816,8.816v29.065H49.151V164.603h106.167V381.19c0,4.869,3.947,8.816,8.816,8.816c4.869,0,8.816-3.947,8.816-8.816
	V164.603h262.7V448.139z"/>
<path d="M126.859,196.22H77.611c-4.869,0-8.816,3.947-8.816,8.816v49.057c0,15.054,10.539,27.683,24.624,30.922v24.853H79.506
	c-4.869,0-8.816,3.947-8.816,8.816s3.947,8.816,8.816,8.816h45.459c4.869,0,8.816-3.947,8.816-8.816s-3.947-8.816-8.816-8.816
	H111.05v-24.853c14.085-3.238,24.624-15.868,24.624-30.922v-49.057C135.674,200.167,131.727,196.22,126.859,196.22z
	 M118.043,254.093c0,7.777-6.327,14.104-14.104,14.104h-3.409c-7.777,0-14.104-6.327-14.104-14.104v-40.242h31.616V254.093z"/>
<path d="M370.908,309.867h-17.361c-4.87,0-8.816,3.947-8.816,8.816s3.946,8.816,8.816,8.816h17.361c4.87,0,8.816-3.947,8.816-8.816
	S375.777,309.867,370.908,309.867z"/>
<path d="M321.976,309.867H257.26c-4.869,0-8.816,3.947-8.816,8.816s3.947,8.816,8.816,8.816h64.716c4.87,0,8.816-3.947,8.816-8.816
	S326.846,309.867,321.976,309.867z"/>
<path d="M241.121,249.735c3.976,2.812,9.477,1.868,12.288-2.108l10.505-14.855v52.7c0,4.869,3.946,8.816,8.816,8.816
	c4.87,0,8.816-3.947,8.816-8.816v-52.699l10.504,14.854c1.718,2.43,4.441,3.726,7.207,3.726c1.758,0,3.536-0.525,5.081-1.619
	c3.975-2.81,4.92-8.311,2.109-12.288l-26.517-37.502c-1.653-2.337-4.336-3.726-7.198-3.726s-5.546,1.389-7.198,3.726l-26.517,37.502
	C236.202,241.423,237.146,246.925,241.121,249.735z"/>
<path d="M323.832,249.735c3.976,2.812,9.476,1.868,12.288-2.108l10.505-14.855v52.699c0,4.869,3.946,8.816,8.816,8.816
	s8.816-3.947,8.816-8.816v-52.699l10.504,14.854c1.718,2.43,4.441,3.726,7.207,3.726c1.758,0,3.536-0.525,5.081-1.619
	c3.975-2.81,4.92-8.311,2.109-12.288l-26.517-37.502c-1.653-2.337-4.336-3.726-7.198-3.726s-5.546,1.389-7.198,3.726l-26.519,37.502
	C318.913,241.423,319.858,246.925,323.832,249.735z"/>
<g>
</g>
<g>
</g>
<g>
</g>
<g>
</g>
<g>
</g>
<g>
</g>
<g>
</g>
<g>
</g>
<g>
</g>
<g>
</g>
<g>
</g>
<g>
</g>
<g>
</g>
<g>
</g>
<g>
</g>
</svg>
