<?xml version="1.0" encoding="UTF-8"?>
<svg width="113px" height="113px" viewBox="0 0 113 113" version="1.1" xmlns="http://www.w3.org/2000/svg" xmlns:xlink="http://www.w3.org/1999/xlink">
    <!-- Generator: Sketch 44.1 (41455) - http://www.bohemiancoding.com/sketch -->
    <title>Untitled</title>
    <desc>Created with Sketch.</desc>
    <defs></defs>
    <g id="Page-1" stroke="none" stroke-width="1" fill="none" fill-rule="evenodd">
        <g id="file" transform="translate(0.000000, 1.000000)">
            <path d="M56.018,112.037 C25.078,112.037 0,86.957 0,56.018 C0,25.08 25.078,0 56.018,0 C86.956,0 112.036,25.08 112.036,56.018 C112.036,86.957 86.956,112.037 56.018,112.037 Z" id="Fill-12" fill="#1FA777"></path>
            <path d="M56.861,79.498 C51.296,79.498 46.117,77.844 41.792,75.002 L31.268,78.347 L34.69,68.257 C31.413,63.777 29.476,58.27 29.476,52.325 C29.476,51.435 29.522,50.557 29.606,49.689 C30.946,35.937 42.657,25.149 56.862,25.149 C71.242,25.149 83.062,36.208 84.157,50.2 C84.211,50.9 84.248,51.608 84.248,52.322 C84.248,67.308 71.96,79.498 56.861,79.498 Z M89.416,51.504 C88.974,34.034 74.576,20.003 56.862,20.003 C39.351,20.003 25.074,33.712 24.322,50.902 C24.301,51.376 24.286,51.849 24.286,52.328 C24.286,58.433 25.993,64.142 28.959,69.015 L23.081,86.359 L41.116,80.628 C45.786,83.19 51.151,84.65 56.862,84.65 C74.854,84.65 89.436,70.179 89.436,52.328 C89.436,52.051 89.423,51.78 89.416,51.504 L89.416,51.504 Z" id="Fill-13" fill="#FFFFFF"></path>
            <path d="M70.809,58.275 C70.01,57.878 66.082,55.96 65.35,55.699 C64.619,55.436 64.086,55.303 63.553,56.095 C63.022,56.888 61.491,58.672 61.024,59.199 C60.559,59.728 60.094,59.796 59.296,59.4 C58.498,59.005 55.924,58.167 52.875,55.467 C50.501,53.367 48.896,50.775 48.433,49.981 C47.967,49.189 48.385,48.761 48.782,48.365 C49.144,48.011 49.581,47.44 49.981,46.979 C50.099,46.845 50.188,46.721 50.271,46.598 C50.467,46.305 50.592,46.03 50.78,45.657 C51.048,45.129 50.913,44.666 50.714,44.268 C50.515,43.872 48.916,39.972 48.253,38.386 C47.586,36.798 46.923,37.065 46.455,37.065 C45.988,37.065 45.458,37 44.925,37 C44.391,37 43.527,37.199 42.796,37.992 C42.064,38.785 40,40.7 40,44.598 C40,45.518 40.164,46.43 40.413,47.296 C41.217,50.095 42.956,52.389 43.262,52.792 C43.658,53.318 48.785,61.58 56.899,64.754 C65.02,67.925 65.02,66.868 66.485,66.735 C67.947,66.603 71.208,64.82 71.875,62.967 C72.538,61.118 72.538,59.529 72.339,59.199 C72.137,58.87 71.607,58.672 70.809,58.275" id="Fill-14" fill="#FFFFFF"></path>
        </g>
    </g>
</svg>